<?xml version="1.0" ?><svg viewBox="0 0 22.521 22.477" xmlns="http://www.w3.org/2000/svg"><g data-name="Layer 2" id="Layer_2"><g data-name="Layer 1" id="Layer_1-2"><path d="M12,12.057a.341.341,0,0,1,0-.682A.341.341,0,0,1,12,12.057Zm0-5.232a.342.342,0,0,0,0,.683A.342.342,0,0,0,12,6.825Zm4.664,0a.342.342,0,0,0,0,.683A.342.342,0,0,0,16.661,6.825Zm-2.33,0a.342.342,0,0,0,0,.683A.342.342,0,0,0,14.331,6.825ZM12,9.1a.342.342,0,0,0,0,.683A.342.342,0,0,0,12,9.1Zm2.334,0a.342.342,0,0,0,0,.683A.342.342,0,0,0,14.331,9.1Zm2.33,0a.342.342,0,0,0,0,.683A.342.342,0,0,0,16.661,9.1ZM7.345,17.063H9.439a.342.342,0,0,0,0-.683H7.345A.342.342,0,0,0,7.345,17.063Zm-4.729,0H5.525a.342.342,0,0,0,0-.683H2.616A.342.342,0,0,0,2.616,17.063Zm8.01,2.728H1.706A1.709,1.709,0,0,1,0,18.084V2.616A1.708,1.708,0,0,1,1.706.91h1.11C2.834.623,2.7,0,3.157,0S3.48.623,3.5.91H6.023C6.041.623,5.905,0,6.365,0s.323.622.341.91H9.23C9.249.623,9.112,0,9.572,0s.323.622.341.91h2.526C12.457.624,12.32,0,12.78,0s.323.622.341.91h2.525c.018-.287-.119-.913.341-.91s.323.623.341.91h1.3a1.708,1.708,0,0,1,1.706,1.706v7.735a.341.341,0,0,1-.682,0V4.777H.682V18.084a1.026,1.026,0,0,0,1.024,1.024h8.92A.342.342,0,0,1,10.626,19.791ZM.682,4.1H18.653V2.616a1.025,1.025,0,0,0-1.024-1.023h-1.3c-.018.286.119.912-.341.91s-.323-.623-.341-.91H13.121c-.018.286.118.912-.341.91s-.323-.623-.341-.91H9.913c-.018.286.118.912-.341.91s-.323-.623-.342-.91H6.706c-.018.286.118.912-.341.91s-.323-.623-.342-.91H3.5c-.018.286.119.912-.341.91s-.323-.623-.341-.91H1.706A1.025,1.025,0,0,0,.682,2.616ZM7.335,7.508a.342.342,0,0,0,0-.683A.342.342,0,0,0,7.335,7.508Zm2.333-.683a.342.342,0,0,0,0,.683A.342.342,0,0,0,9.668,6.825Zm0,2.275a.342.342,0,0,0,0,.683A.342.342,0,0,0,9.668,9.1Zm-4.663.683a.342.342,0,0,0,0-.683A.342.342,0,0,0,5.005,9.783Zm2.33,0a.342.342,0,0,0,0-.683A.342.342,0,0,0,7.335,9.783Zm-4.664,0a.342.342,0,0,0,0-.683A.342.342,0,0,0,2.671,9.783Zm7.338,1.933a.341.341,0,0,0-.682,0A.341.341,0,0,0,10.009,11.716Zm-7.338.341a.341.341,0,0,0,0-.682A.341.341,0,0,0,2.671,12.057Zm4.664,0a.341.341,0,0,0,0-.682A.341.341,0,0,0,7.335,12.057Zm-2.33,0a.341.341,0,0,0,0-.682A.341.341,0,0,0,5.005,12.057Zm2.33,2.275a.341.341,0,0,0,0-.682A.341.341,0,0,0,7.335,14.332Zm-2.33,0a.341.341,0,0,0,0-.682A.341.341,0,0,0,5.005,14.332Zm-2.334,0a.341.341,0,0,0,0-.682A.341.341,0,0,0,2.671,14.332Zm19.85,2.388c-.272,7.675-11.33,7.677-11.6,0a5.8,5.8,0,0,1,11.6,0Zm-.683,0a5.118,5.118,0,1,0-5.118,5.118A5.118,5.118,0,0,0,21.838,16.72Zm-1.706-1.1v2.193a.342.342,0,0,1-.341.342H18.158v1.633a.341.341,0,0,1-.341.341H15.623a.341.341,0,0,1-.341-.341V18.158H13.649a.342.342,0,0,1-.342-.342V15.623a.342.342,0,0,1,.342-.341h1.633V13.649a.342.342,0,0,1,.341-.342h2.194a.342.342,0,0,1,.341.342v1.633h1.633A.341.341,0,0,1,20.132,15.623Zm-.683.341H17.817a.341.341,0,0,1-.342-.341V13.99H15.964v1.633a.341.341,0,0,1-.341.341H13.99v1.511h1.633a.341.341,0,0,1,.341.341V19.45h1.511V17.816a.342.342,0,0,1,.342-.341h1.632Z" data-name="annual checkup" id="annual_checkup"/></g></g></svg>