<?xml version="1.0" ?><svg viewBox="0 0 22.521 22.521" xmlns="http://www.w3.org/2000/svg"><g data-name="Layer 2" id="Layer_2"><g data-name="Layer 1" id="Layer_1-2"><path d="M4.171,17.618c-.307.317-.789-.17-.482-.482S4.487,17.309,4.171,17.618Zm2.948-.582a.341.341,0,0,0,0,.682A.341.341,0,0,0,7.119,17.036Zm2.939.1c-.306.312.175.8.482.482S10.372,16.826,10.058,17.136ZM22.52,1.753v9.66a1.768,1.768,0,0,1-1.752,1.753H14.233v9.013a.343.343,0,0,1-.509.3c-1.28-.647-3.44-2.276-4.954-2.153H1.753A1.754,1.754,0,0,1,0,18.571V11.179A1.754,1.754,0,0,1,1.753,9.427H5.264V1.753A1.76,1.76,0,0,1,7.017,0H20.768A1.759,1.759,0,0,1,22.52,1.753ZM13.551,13.166H11.726a4.371,4.371,0,0,0-2.148.565l-3.8,2.152a.339.339,0,0,1-.168.045.344.344,0,0,1-.342-.342V10.109H1.753a1.072,1.072,0,0,0-1.071,1.07v7.392a1.072,1.072,0,0,0,1.071,1.07H8.77a5.05,5.05,0,0,1,2.483.654l2.3,1.3ZM21.838,1.753A1.083,1.083,0,0,0,20.768.682H7.017a1.076,1.076,0,0,0-1.07,1.071V15c1.493-.752,4.013-2.659,5.779-2.518h9.042a1.082,1.082,0,0,0,1.07-1.07ZM19.807,7.379H16.622a.342.342,0,0,0,0,.683h3.185A.342.342,0,0,0,19.807,7.379Zm-1.82,2.275h-3.64a.342.342,0,0,0,0,.683h3.64A.342.342,0,0,0,17.987,9.654Zm1.82-4.549H16.622a.341.341,0,0,0,0,.682h3.185A.341.341,0,0,0,19.807,5.105Zm0-2.276h-5.46a.341.341,0,0,0,0,.682h5.46A.341.341,0,0,0,19.807,2.829Zm-5,5.233H12.869V9.995a.342.342,0,0,1-.342.342H10.253a.342.342,0,0,1-.342-.342V8.062H7.978a.342.342,0,0,1-.342-.342V5.445a.341.341,0,0,1,.342-.34H9.911V3.171a.341.341,0,0,1,.342-.341h2.274a.341.341,0,0,1,.342.341V5.105H14.8a.34.34,0,0,1,.341.34V7.72A.341.341,0,0,1,14.8,8.062Zm-.341-2.275H12.527a.342.342,0,0,1-.341-.342V3.512H10.594V5.445a.342.342,0,0,1-.341.342H8.319V7.379h1.934a.341.341,0,0,1,.341.341V9.654h1.592V7.72a.341.341,0,0,1,.341-.341h1.934Z" id="forum"/></g></g></svg>