<?xml version="1.0" ?><svg viewBox="0 0 22.546 22.582" xmlns="http://www.w3.org/2000/svg"><g data-name="Layer 2" id="Layer_2"><g data-name="Layer 1" id="Layer_1-2"><path d="M18.02,5.671V1.711A1.714,1.714,0,0,0,16.309,0H1.71A1.713,1.713,0,0,0,0,1.711v19.16a1.713,1.713,0,0,0,1.71,1.711h14.6a1.714,1.714,0,0,0,1.711-1.711V19.647A7.658,7.658,0,0,0,18.02,5.671Zm1.724,1.968-2.819,2.669A3.068,3.068,0,0,0,15.282,9.6V5.72A6.926,6.926,0,0,1,19.744,7.639Zm-7.488,6.524L9.1,16.427A6.982,6.982,0,0,1,14.6,5.72V9.6A3.1,3.1,0,0,0,12.256,14.163Zm2.684-3.9a2.4,2.4,0,0,1,0,4.79A2.4,2.4,0,0,1,14.94,10.264ZM4.79.684h8.44V1.711A1.028,1.028,0,0,1,12.2,2.737H5.816A1.027,1.027,0,0,1,4.79,1.711ZM17.335,20.871A1.028,1.028,0,0,1,16.309,21.9H1.71A1.028,1.028,0,0,1,.684,20.871V1.711A1.028,1.028,0,0,1,1.71.684h2.4V1.711a1.713,1.713,0,0,0,1.711,1.71H12.2a1.712,1.712,0,0,0,1.71-1.71V.684h2.4a1.028,1.028,0,0,1,1.026,1.027v3.7a7.638,7.638,0,1,0,0,14.5Zm-2.4-1.254A6.945,6.945,0,0,1,9.5,16.983l3.158-2.265a3.094,3.094,0,0,0,4.077.439l2.606,2.886A6.927,6.927,0,0,1,14.94,19.617Zm4.908-2.032L17.242,14.7a3.092,3.092,0,0,0,.152-3.891l2.821-2.672A7.01,7.01,0,0,1,19.848,17.585ZM5.93,6.272a.343.343,0,0,1,.343-.342H8.554a.342.342,0,1,1,0,.684H6.273A.343.343,0,0,1,5.93,6.272Zm-3.649,0a.342.342,0,0,1,.342-.342H4.448a.342.342,0,0,1,0,.684H2.623A.342.342,0,0,1,2.281,6.272Zm0,2.556a.342.342,0,0,1,.342-.343h4.1a.342.342,0,1,1,0,.684h-4.1A.342.342,0,0,1,2.281,8.828Zm0,2.554a.342.342,0,0,1,.342-.342H6.009a.342.342,0,1,1,0,.684H2.623A.342.342,0,0,1,2.281,11.382Zm0,2.555a.343.343,0,0,1,.342-.343H6.009a.343.343,0,1,1,0,.685H2.623A.342.342,0,0,1,2.281,13.937Zm4.79,2.554c-.006.523-.807.3-1.254.343a.343.343,0,0,1-.342-.343c.006-.523.806-.3,1.253-.342A.343.343,0,0,1,7.071,16.491Zm-4.79,0a.342.342,0,0,1,.342-.342H3.992a.343.343,0,0,1,0,.685H2.623A.343.343,0,0,1,2.281,16.491ZM8.9,19.046a.342.342,0,0,1-.342.342H2.623a.342.342,0,0,1,0-.684H8.554A.342.342,0,0,1,8.9,19.046Z" id="statistics"/></g></g></svg>