<svg viewBox="0 0 1219 1592" xmlns="http://www.w3.org/2000/svg">
 <g>
  <title>Layer 1</title>
  <path id="svg_1" d="m109.623376,840.150801c0,28.8 0,57.6 0,86.4c0,0 0,0 0,0c0,-28.9 0,-57.8 0,-86.7c13.9,0 27.7,0 41.6,0c0.7,0.1 1.5,0.1 2.2,0c2.9,0 5.4,-0.7 7.5,-1.9c8.8,-3.5 15.5,-11.2 15.4,-21c0.2,9.9 -6.4,17.7 -15.4,21.3c-2,1.2 -4.5,1.9 -7.5,1.9c-0.8,0.1 -1.5,0.1 -2.2,0c-13.9,0 -27.8,0 -41.6,0zm286.9,489.2c0,0.2 0,0.3 0,0.5c0,0 0,0 0,0c0,-0.2 0,-0.3 0,-0.5zm60.1,-3.9c0,0 0,0 0,0c0,1.4 0,2.7 0,4.1c0,-1.4 0.1,-2.7 0,-4.1c0,0 0,0 0,0zm-305.4,-353c0.7,0.1 1.4,0.1 2.2,0c3,0 5.5,-0.7 7.5,-1.9c9,-3.6 15.6,-11.4 15.4,-21.3c0.1,9.7 -6.6,17.4 -15.4,21c-2.1,1.2 -4.6,1.9 -7.5,1.9c-0.7,0.1 -1.5,0.1 -2.2,0c-13.9,0 -27.7,0 -41.6,0c0,28.9 0,57.8 0,86.7c0,0 0,0 0,0c0,-28.8 0,-57.6 0,-86.4c13.8,0 27.7,0 41.6,0zm304.6,22.3c0.1,-9.1 0.2,-18.2 0.3,-27.3l0,0c-0.1,9.1 -0.2,18.2 -0.3,27.3zm-59.2,177.9c0,0 0,0.1 0,0c19.1,0.1 38.2,0.1 57.3,0.1c0.1,-49.2 0.8,-98.5 1.5,-147.8c0,0 0,0 0,0c-0.7,49.2 -1.4,98.4 -1.5,147.7c-19.1,0 -38.2,0 -57.3,0zm-245.4,-464.8c0.7,0.1 1.4,0.1 2.2,0c3,0 5.5,-0.7 7.5,-1.9c9,-3.6 15.6,-11.4 15.4,-21.3c0.1,9.7 -6.6,17.4 -15.4,21c-2.1,1.2 -4.6,1.9 -7.5,1.9c-0.7,0.1 -1.5,0.1 -2.2,0c-13.9,0 -27.7,0 -41.6,0c0,28.9 0,57.8 0,86.7c0,0 0,0 0,0c0,-28.8 0,-57.6 0,-86.4c13.8,0 27.7,0 41.6,0zm0,661.5c0.7,0.1 1.4,0.1 2.2,0c3,0 5.5,-0.7 7.5,-1.9c9,-3.6 15.6,-11.4 15.4,-21.3c0.1,9.7 -6.6,17.4 -15.4,21c-2.1,1.2 -4.6,1.9 -7.5,1.9c-0.7,0.1 -1.5,0.1 -2.2,0c-13.9,0 -27.7,0 -41.6,0c0,28.9 0,57.8 0,86.7c0,0 0,0 0,0c0,-28.8 0,-57.6 0,-86.4c13.8,0 27.7,0 41.6,0zm0,132.3c0.7,0.1 1.4,0.1 2.2,0c3,0 5.5,-0.7 7.5,-1.9c9,-3.6 15.6,-11.4 15.4,-21.3c0.1,9.7 -6.6,17.4 -15.4,21c-2.1,1.2 -4.6,1.9 -7.5,1.9c-0.7,0.1 -1.5,0.1 -2.2,0c-13.8,0 -27.7,0 -41.6,0c0,20.3 0,40.7 0,61c0,0 0,0 0,0c0,-20.2 0,-40.5 0,-60.7c13.8,0 27.7,0 41.6,0zm215.3,-240.5c0,13.3 -0.2,26.6 -0.2,40c0,-13.3 0.2,-26.5 0.2,-39.8c0,-0.1 0,-0.1 0,-0.2zm-67.4,-1016c0,-57.6 0,-115.3 0,-172.9c81.8,0 163.7,0 245.5,0c159.6,0 319.4,-2.6 478.9,0c44.7,0.7 86.6,18.4 117,48.6c-30.3,-30.2 -72.3,-47.9 -117.1,-48.7c-159.6,-2.6 -319.3,0 -478.9,0c-81.8,0 -163.7,0 -245.5,0c0,57.6 0,115.3 0,172.9c0,272.5 0,544.9 0,817.3c0,166.7 0,333.3 0,500c0,0 0.1,0 0.1,0c0,-166.7 0,-333.2 0,-499.9c0,-272.5 0,-544.9 0,-817.3zm97.5,1054.4c0,7.6 -0.2,15.2 -0.2,22.7c0,-7.6 0.2,-15.1 0.2,-22.7c0,0 0,0 0,0zm-245.4,-724c0.7,0.1 1.4,0.1 2.2,0c3,0 5.5,-0.7 7.5,-1.9c9,-3.6 15.6,-11.4 15.4,-21.3c0.1,9.7 -6.6,17.4 -15.4,21c-2.1,1.2 -4.6,1.9 -7.5,1.9c-0.7,0.1 -1.5,0.1 -2.2,0c-13.9,0 -27.7,0 -41.6,0c0,28.9 0,57.8 0,86.7c0,0 0,0 0,0c0,-28.8 0,-57.6 0,-86.4c13.8,0 27.7,0 41.6,0zm303.4,684.7c0,0 0,0 0,0c-19.3,0 -38.7,0 -58,0c0,0 0,0 0,0c19.3,0 38.7,0 58,0c0,0 0,0 0,0zm-303.4,-155.5c0.7,0.1 1.4,0.1 2.2,0c3,0 5.5,-0.7 7.5,-1.9c9,-3.6 15.6,-11.4 15.4,-21.3c0.1,9.7 -6.6,17.4 -15.4,21c-2.1,1.2 -4.6,1.9 -7.5,1.9c-0.7,0.1 -1.5,0.1 -2.2,0c-13.9,0 -27.7,0 -41.6,0c0,28.9 0,57.8 0,86.7c0,0 0,0 0,0c0,-28.8 0,-57.6 0,-86.4c13.8,0 27.7,0 41.6,0zm264.5,261c-4.8,-9.2 -9.7,-18.4 -14.5,-27.6c4.8,9.2 9.6,18.5 14.5,27.6zm-264.5,-128.7c0.7,0.1 1.4,0.1 2.2,0c3,0 5.5,-0.7 7.5,-1.9c9,-3.6 15.6,-11.4 15.4,-21.3c0.1,9.7 -6.6,17.4 -15.4,21c-2.1,1.2 -4.6,1.9 -7.5,1.9c-0.7,0.1 -1.5,0.1 -2.2,0c-13.9,0 -27.7,0 -41.6,0c0,28.9 0,57.8 0,86.7c0,0 0,0 0,0c0,-28.8 0,-57.6 0,-86.4c13.8,0 27.7,0 41.6,0zm245.2,-897.7c0,2.1 0.2,4.3 0.2,6.4c0,-2.1 -0.2,-4.3 -0.2,-6.4zm60.2,36c0,-8.4 0.8,-17.4 0.7,-26.2c0,8.7 -0.7,17.7 -0.7,26.1c0,0 0,0.1 0,0.1zm-187.6,-303.3c0,-0.1 0,-0.2 0,-0.3c-53.1,0 -106.3,0 -159.4,0c0,20.4 0,40.7 0,61c0,0 0,0 0,0c0,-20.3 0,-40.5 0,-60.7c53.1,0 106.3,0 159.4,0zm127.6,429.6c-0.2,-34.3 -1,-68.7 -1,-103.1c0,34.4 0.8,68.8 1,103.1zm-245.4,-190.7c0.7,0.1 1.4,0.1 2.2,0c3,0 5.5,-0.7 7.5,-1.9c9,-3.6 15.6,-11.4 15.4,-21.3c0.1,9.7 -6.6,17.4 -15.4,21c-2.1,1.2 -4.6,1.9 -7.5,1.9c-0.7,0.1 -1.5,0.1 -2.2,0c-13.9,0 -27.7,0 -41.6,0c0,28.9 0,57.8 0,86.7c0,0 0,0 0,0c0,-28.8 0,-57.6 0,-86.4c13.8,0 27.7,0 41.6,0zm-41.6,-132.3c13.8,0 27.7,0 41.6,0c0.7,0.1 1.4,0.1 2.2,0c3,0 5.5,-0.7 7.5,-1.9c9,-3.6 15.6,-11.4 15.4,-21.3c0.1,9.7 -6.6,17.4 -15.4,21c-2.1,1.2 -4.6,1.9 -7.5,1.9c-0.7,0.1 -1.5,0.1 -2.2,0c-13.9,0 -27.7,0 -41.6,0c0,22.1 0,44.3 0,66.4c0,6.8 0,13.5 0,20.3c0,0 0,0 0,0c0,-6.7 0,-13.3 0,-20c0,-22.1 0,-44.3 0,-66.4zm377.1,159c-2.3,-47.8 -57.6,-74.1 -96.7,-45.8c-21.3,15.4 -25.6,45.7 -25.6,75.8c0,-30 4.3,-60.2 25.6,-75.6c39.1,-28.3 94.3,-2 96.7,45.9c0.3,5.4 0.3,10.9 0.3,16.3c0,-5.5 0,-11.1 -0.3,-16.6zm-90.2,892.5c0,0 0.1,0 0,0c0.1,-9.1 0.1,-18.2 0.1,-27.3c0,9.1 0,18.2 -0.1,27.3zm-245.3,-786.9c0.7,0.1 1.4,0.1 2.2,0c3,0 5.5,-0.7 7.5,-1.9c9,-3.6 15.6,-11.4 15.4,-21.3c0.1,9.7 -6.6,17.4 -15.4,21c-2.1,1.2 -4.6,1.9 -7.5,1.9c-0.7,0.1 -1.5,0.1 -2.2,0c-13.9,0 -27.7,0 -41.6,0c0,28.9 0,57.8 0,86.7c0,0 0,0 0,0c0,-28.8 0,-57.6 0,-86.4c13.8,0 27.7,0 41.6,0zm305.4,442.7c0,17.1 -0.1,34.2 -0.2,51.4c0.1,-17.1 0.2,-34.3 0.2,-51.4zm-281.1,454.5c-2.7,-10.4 -12.1,-16.6 -22.4,-17c-6.9,-0.3 -13.8,0 -20.7,0c-7.6,0 -15.2,0 -22.8,0c0,0.1 0,0.2 0,0.3c7.6,0 15.2,0 22.8,0c6.9,0 13.8,-0.3 20.7,0c10.4,0.4 19.7,6.6 22.4,17c0.5,1.9 0.7,3.7 0.8,5.4c0,-1.8 -0.3,-3.7 -0.8,-5.7zm0,132.3c-2.7,-10.4 -12.1,-16.6 -22.4,-17c-6.9,-0.3 -13.8,0 -20.7,0c-7.6,0 -15.2,0 -22.8,0c0,0.1 0,0.2 0,0.3c7.6,0 15.2,0 22.8,0c6.9,0 13.8,-0.3 20.7,0c10.4,0.4 19.7,6.6 22.4,17c0.5,1.9 0.7,3.7 0.8,5.4c0,-1.8 -0.3,-3.7 -0.8,-5.7zm0,-264.6c-2.7,-10.4 -12.1,-16.6 -22.4,-17c-6.9,-0.3 -13.8,0 -20.7,0c-7.6,0 -15.2,0 -22.8,0c0,0.1 0,0.2 0,0.3c7.6,0 15.2,0 22.8,0c6.9,0 13.8,-0.3 20.7,0c10.4,0.4 19.7,6.6 22.4,17c0.5,1.9 0.7,3.7 0.8,5.4c0,-1.8 -0.3,-3.7 -0.8,-5.7zm0,-1058.4c-2.7,-10.4 -12.1,-16.6 -22.4,-17c-6.9,-0.3 -13.8,0 -20.7,0c-7.6,0 -15.2,0 -22.8,0c0,0.1 0,0.2 0,0.3c7.6,0 15.2,0 22.8,0c6.9,0 13.8,-0.3 20.7,0c10.4,0.4 19.7,6.6 22.4,17c0.5,1.9 0.7,3.7 0.8,5.4c0,-1.8 -0.3,-3.7 -0.8,-5.7zm0,132.3c-2.7,-10.4 -12.1,-16.6 -22.4,-17c-6.9,-0.3 -13.8,0 -20.7,0c-7.6,0 -15.2,0 -22.8,0c0,0.1 0,0.2 0,0.3c7.6,0 15.2,0 22.8,0c6.9,0 13.8,-0.3 20.7,0c10.4,0.4 19.7,6.6 22.4,17c0.5,1.9 0.7,3.7 0.8,5.4c0,-1.8 -0.3,-3.7 -0.8,-5.7zm0,529.2c-2.7,-10.4 -12.1,-16.6 -22.4,-17c-6.9,-0.3 -13.8,0 -20.7,0c-7.6,0 -15.2,0 -22.8,0c0,0.1 0,0.2 0,0.3c7.6,0 15.2,0 22.8,0c6.9,0 13.8,-0.3 20.7,0c10.4,0.4 19.7,6.6 22.4,17c0.5,1.9 0.7,3.7 0.8,5.4c0,-1.8 -0.3,-3.7 -0.8,-5.7zm0,-264.6c-2.7,-10.4 -12.1,-16.6 -22.4,-17c-6.9,-0.3 -13.8,0 -20.7,0c-7.6,0 -15.2,0 -22.8,0c0,0.1 0,0.2 0,0.3c7.6,0 15.2,0 22.8,0c6.9,0 13.8,-0.3 20.7,0c10.4,0.4 19.7,6.6 22.4,17c0.5,1.9 0.7,3.7 0.8,5.4c0,-1.8 -0.3,-3.7 -0.8,-5.7zm0,132.3c-2.7,-10.4 -12.1,-16.6 -22.4,-17c-6.9,-0.3 -13.8,0 -20.7,0c-7.6,0 -15.2,0 -22.8,0c0,0.1 0,0.2 0,0.3c7.6,0 15.2,0 22.8,0c6.9,0 13.8,-0.3 20.7,0c10.4,0.4 19.7,6.6 22.4,17c0.5,1.9 0.7,3.7 0.8,5.4c0,-1.8 -0.3,-3.7 -0.8,-5.7zm0,264.6c-2.7,-10.4 -12.1,-16.6 -22.4,-17c-6.9,-0.3 -13.8,0 -20.7,0c-7.6,0 -15.2,0 -22.8,0c0,0.1 0,0.2 0,0.3c7.6,0 15.2,0 22.8,0c6.9,0 13.8,-0.3 20.7,0c10.4,0.4 19.7,6.6 22.4,17c0.5,1.9 0.7,3.7 0.8,5.4c0,-1.8 -0.3,-3.7 -0.8,-5.7zm0,-529.2c-2.7,-10.4 -12.1,-16.6 -22.4,-17c-6.9,-0.3 -13.8,0 -20.7,0c-7.6,0 -15.2,0 -22.8,0c0,0.1 0,0.2 0,0.3c7.6,0 15.2,0 22.8,0c6.9,0 13.8,-0.3 20.7,0c10.4,0.4 19.7,6.6 22.4,17c0.5,1.9 0.7,3.7 0.8,5.4c0,-1.8 -0.3,-3.7 -0.8,-5.7zm0,661.5c-2.7,-10.4 -12.1,-16.6 -22.4,-17c-6.9,-0.3 -13.8,0 -20.7,0c-7.6,0 -15.2,0 -22.8,0c0,0.1 0,0.2 0,0.3c7.6,0 15.2,0 22.8,0c6.9,0 13.8,-0.3 20.7,0c10.4,0.4 19.7,6.6 22.4,17c0.5,1.9 0.7,3.7 0.8,5.4c0,-1.8 -0.3,-3.7 -0.8,-5.7zm221.1,-730.1c0,0.4 0,0.8 0,1.2c-0.7,17.2 -0.9,34.4 -1,51.6c0,-17.2 0.3,-34.4 1,-51.5c0,-0.4 0,-0.8 0,-1.3zm0,621.7c0,0 0,0 0,0c19.8,0 39.7,0 59.5,0c0,0 0,0 0,0c-19.8,0 -39.7,0 -59.5,0zm57.6,262.7c-0.1,-9.1 -0.2,-18.2 -0.3,-27.3c0,9.1 0.1,18.2 0.3,27.3c-0.1,0 0,0 0,0zm-57.6,-205.2c19.6,0 39.2,0 58.8,0c0,0 0,-0.1 0,-0.1c-19.6,0 -39.2,0 -58.8,0.1c0,-0.1 0,0 0,0zm60,-687.6c-4.6,-34.5 -55.1,-35.5 -60,-0.6c-0.1,0.9 -0.2,1.7 -0.2,2.6c0,-0.9 0.1,-1.7 0.2,-2.5c4.9,-35 55.4,-33.9 60,0.5c0.5,3.9 0.7,7.8 0.7,11.8c0,-4 -0.2,-8 -0.7,-11.8zm762.3,-51c0,81.6 0,163.3 0,244.9c0,222.1 0,444.3 0,666.4c0,62.8 0,125.7 0,188.6c0,111.5 -78.1,203.1 -193,205.8c-38.4,0 -76.7,0 -115.1,0c-208.5,0 -417.1,0 -625.6,0c-63.2,0 -126.3,0 -189.5,0c-0.6,0 -1.3,0 -1.9,0c-8.1,0 -15,-6.9 -15,-15c0,-25.3 0,-50.6 0,-75.9c-14.7,0.2 -29.5,0.7 -44.1,-0.1c-13.9,-0.8 -24.7,-12.5 -22.3,-26.6c1.9,-11.4 11.4,-18.4 22.6,-19c6.7,-0.3 13.5,0 20.2,0c7.8,0 15.6,0 23.5,0c0,-22.1 0,-44.3 0,-66.4c0,-6.7 0,-13.5 0,-20.2c-14.7,0.2 -29.5,0.7 -44.1,-0.1c-13.9,-0.8 -24.7,-12.5 -22.3,-26.6c1.9,-11.4 11.4,-18.4 22.6,-19c6.7,-0.3 13.5,0 20.2,0c7.8,0 15.6,0 23.5,0c0,-28.8 0,-57.7 0,-86.6c-14.7,0.2 -29.5,0.7 -44.1,-0.1c-13.9,-0.8 -24.7,-12.5 -22.3,-26.6c1.9,-11.4 11.4,-18.4 22.6,-19c6.7,-0.3 13.5,0 20.2,0c7.8,0 15.6,0 23.5,0c0,-28.8 0,-57.7 0,-86.6c-14.7,0.2 -29.5,0.7 -44.1,-0.1c-13.9,-0.8 -24.7,-12.5 -22.3,-26.6c1.9,-11.4 11.4,-18.4 22.6,-19c6.7,-0.3 13.5,0 20.2,0c7.8,0 15.6,0 23.5,0c0,-28.8 0,-57.7 0,-86.6c-14.7,0.2 -29.5,0.7 -44.1,-0.1c-13.9,-0.8 -24.7,-12.5 -22.3,-26.6c1.9,-11.4 11.4,-18.4 22.6,-19c6.7,-0.3 13.5,0 20.2,0c7.8,0 15.6,0 23.5,0c0,-28.8 0,-57.7 0,-86.6c-14.7,0.2 -29.5,0.7 -44.1,-0.1c-13.9,-0.7 -24.7,-12.4 -22.3,-26.5c1.9,-11.4 11.4,-18.5 22.6,-19c6.7,-0.3 13.5,0 20.2,0c7.8,0 15.6,0 23.5,0c0,-28.8 0,-57.7 0,-86.6c-14.7,0.2 -29.5,0.7 -44.1,-0.1c-13.9,-0.7 -24.7,-12.4 -22.3,-26.5c1.9,-11.4 11.4,-18.5 22.6,-19c6.7,-0.3 13.5,0 20.2,0c7.8,0 15.6,0 23.5,0c0,-28.8 0,-57.7 0,-86.6c-14.7,0.2 -29.5,0.7 -44.1,-0.1c-13.9,-0.7 -24.7,-12.4 -22.3,-26.5c1.9,-11.4 11.4,-18.5 22.6,-19c6.7,-0.3 13.5,0 20.2,0c7.8,0 15.6,0 23.5,0c0,-28.8 0,-57.7 0,-86.6c-14.7,0.2 -29.5,0.7 -44.1,-0.1c-13.9,-0.7 -24.7,-12.4 -22.3,-26.5c1.9,-11.4 11.4,-18.5 22.6,-19c6.7,-0.3 13.5,0 20.2,0c7.8,0 15.6,0 23.5,0c0,-28.8 0,-57.7 0,-86.6c-14.7,0.2 -29.5,0.7 -44.1,-0.1c-13.9,-0.7 -24.7,-12.4 -22.3,-26.5c1.9,-11.4 11.4,-18.5 22.6,-19c6.7,-0.3 13.5,0 20.2,0c7.8,0 15.6,0 23.5,0c0,-28.8 0,-57.7 0,-86.6c-14.7,0.2 -29.5,0.7 -44.1,-0.1c-13.9,-0.7 -24.7,-12.4 -22.3,-26.5c1.9,-11.4 11.4,-18.5 22.6,-19c6.7,-0.3 13.5,0 20.2,0c7.8,0 15.6,0 23.5,0c0,-25.3 0,-50.7 0,-76c0,-8.1 6.9,-15 15,-15c4.1,0 8.2,0 12.3,0c185.3,-3.1 370.9,0 556.2,0c96.8,0 193.5,0 290.2,0c72.4,0 142.1,-3.4 201.3,48.5c60.2,52.9 65,123 66.2,195.8zm-949.9,1276.3c0,-58 0,-115.6 0,-173.3c0,-272.4 0,-544.8 0,-817.3c0,-166.7 0,-333.3 0,-500c0,0 0,0 0,0c0,-0.1 0,-0.2 0,-0.3c-53.1,0 -106.3,0 -159.4,0c0,20.4 0,40.7 0,61c0,0 0,0 0,0c0,0.1 0,0.2 0,0.3c7.6,0 15.2,0 22.8,0c6.9,0 13.8,-0.3 20.7,0c10.4,0.4 19.7,6.6 22.4,17c0.5,1.9 0.7,3.7 0.8,5.4c0.1,9.7 -6.6,17.4 -15.4,21c-2.1,1.2 -4.6,1.9 -7.5,1.9c-0.7,0.1 -1.5,0.1 -2.2,0c-13.9,0 -27.7,0 -41.6,0c0,22.1 0,44.3 0,66.4c0,6.8 0,13.5 0,20.3c0,0 0,0 0,0c0,0.1 0,0.2 0,0.3c7.6,0 15.2,0 22.8,0c6.9,0 13.8,-0.3 20.7,0c10.4,0.4 19.7,6.6 22.4,17c0.5,1.9 0.7,3.7 0.8,5.4c0.1,9.7 -6.6,17.4 -15.4,21c-2.1,1.2 -4.6,1.9 -7.5,1.9c-0.7,0.1 -1.5,0.1 -2.2,0c-13.9,0 -27.7,0 -41.6,0c0,28.9 0,57.8 0,86.7c0,0 0,0 0,0c0,0.1 0,0.2 0,0.3c7.6,0 15.2,0 22.8,0c6.9,0 13.8,-0.3 20.7,0c10.4,0.4 19.7,6.6 22.4,17c0.5,1.9 0.7,3.7 0.8,5.4c0.1,9.7 -6.6,17.4 -15.4,21c-2.1,1.2 -4.6,1.9 -7.5,1.9c-0.7,0.1 -1.5,0.1 -2.2,0c-13.9,0 -27.7,0 -41.6,0c0,28.9 0,57.8 0,86.7c0,0 0,0 0,0c0,0.1 0,0.2 0,0.3c7.6,0 15.2,0 22.8,0c6.9,0 13.8,-0.3 20.7,0c10.4,0.4 19.7,6.6 22.4,17c0.5,1.9 0.7,3.7 0.8,5.4c0.1,9.7 -6.6,17.4 -15.4,21c-2.1,1.2 -4.6,1.9 -7.5,1.9c-0.7,0.1 -1.5,0.1 -2.2,0c-13.9,0 -27.7,0 -41.6,0c0,28.9 0,57.8 0,86.7c0,0 0,0 0,0c0,0.1 0,0.2 0,0.3c7.6,0 15.2,0 22.8,0c6.9,0 13.8,-0.3 20.7,0c10.4,0.4 19.7,6.6 22.4,17c0.5,1.9 0.7,3.7 0.8,5.4c0.1,9.7 -6.6,17.4 -15.4,21c-2.1,1.2 -4.6,1.9 -7.5,1.9c-0.7,0.1 -1.5,0.1 -2.2,0c-13.9,0 -27.7,0 -41.6,0c0,28.9 0,57.8 0,86.7c0,0 0,0 0,0c0,0.1 0,0.2 0,0.3c7.6,0 15.2,0 22.8,0c6.9,0 13.8,-0.3 20.7,0c10.4,0.4 19.7,6.6 22.4,17c0.5,1.9 0.7,3.7 0.8,5.4c0.1,9.7 -6.6,17.4 -15.4,21c-2.1,1.2 -4.6,1.9 -7.5,1.9c-0.7,0.1 -1.5,0.1 -2.2,0c-13.9,0 -27.7,0 -41.6,0c0,28.9 0,57.8 0,86.7c0,0 0,0 0,0c0,0.1 0,0.2 0,0.3c7.6,0 15.2,0 22.8,0c6.9,0 13.8,-0.3 20.7,0c10.4,0.4 19.7,6.6 22.4,17c0.5,1.9 0.7,3.7 0.8,5.4c0.1,9.7 -6.6,17.4 -15.4,21c-2.1,1.2 -4.6,1.9 -7.5,1.9c-0.7,0.1 -1.5,0.1 -2.2,0c-13.9,0 -27.7,0 -41.6,0c0,28.9 0,57.8 0,86.7c0,0 0,0 0,0c0,0.1 0,0.2 0,0.3c7.6,0 15.2,0 22.8,0c6.9,0 13.8,-0.3 20.7,0c10.4,0.4 19.7,6.6 22.4,17c0.5,1.9 0.7,3.7 0.8,5.4c0.1,9.7 -6.6,17.4 -15.4,21c-2.1,1.2 -4.6,1.9 -7.5,1.9c-0.7,0.1 -1.5,0.1 -2.2,0c-13.9,0 -27.7,0 -41.6,0c0,28.9 0,57.8 0,86.7c0,0 0,0 0,0c0,0.1 0,0.2 0,0.3c7.6,0 15.2,0 22.8,0c6.9,0 13.8,-0.3 20.7,0c10.4,0.4 19.7,6.6 22.4,17c0.5,1.9 0.7,3.7 0.8,5.4c0.1,9.7 -6.6,17.4 -15.4,21c-2.1,1.2 -4.6,1.9 -7.5,1.9c-0.7,0.1 -1.5,0.1 -2.2,0c-13.9,0 -27.7,0 -41.6,0c0,28.9 0,57.8 0,86.7c0,0 0,0 0,0c0,0.1 0,0.2 0,0.3c7.6,0 15.2,0 22.8,0c6.9,0 13.8,-0.3 20.7,0c10.4,0.4 19.7,6.6 22.4,17c0.5,1.9 0.7,3.7 0.8,5.4c0.1,9.7 -6.6,17.4 -15.4,21c-2.1,1.2 -4.6,1.9 -7.5,1.9c-0.7,0.1 -1.5,0.1 -2.2,0c-13.9,0 -27.7,0 -41.6,0c0,28.9 0,57.8 0,86.7c0,0 0,0 0,0c0,0.1 0,0.2 0,0.3c7.6,0 15.2,0 22.8,0c6.9,0 13.8,-0.3 20.7,0c10.4,0.4 19.7,6.6 22.4,17c0.5,1.9 0.7,3.7 0.8,5.4c0.1,9.7 -6.6,17.4 -15.4,21c-2.1,1.2 -4.6,1.9 -7.5,1.9c-0.7,0.1 -1.5,0.1 -2.2,0c-13.8,0 -27.7,0 -41.6,0c0,20.3 0,40.7 0,61c0,0 0,0 0,0c0,0.1 0,0.2 0,0.3c33.3,0 66.7,0 100,0c19.8,0 39.6,0 59.4,0zm918.7,-228.9c-0.1,-81.5 -0.1,-162.9 -0.1,-244.2c0,-214.5 0,-429.1 0,-643.6c0,-63.7 0,-127.4 0,-191c0,-24.5 -0.4,-48.3 -8.5,-72.1c-8.2,-24.1 -21.6,-45 -38.6,-62c-30.3,-30.2 -72.3,-47.9 -117.1,-48.7c-159.6,-2.6 -319.3,0 -478.9,0c-81.8,0 -163.7,0 -245.5,0c0,57.6 0,115.3 0,172.9c0,272.5 0,544.9 0,817.3c0,166.7 0,333.3 0,500c0,0 0.1,0 0.1,0c0,0 0,0.1 0,0.1c241.9,0 483.8,0 725.7,0c42.1,-1 81.6,-15.8 112.4,-45c54,-51.2 50.5,-116.8 50.5,-183.7zm-0.1,-244.2c0,-214.5 0,-429.1 0,-643.6c0,-63.7 0,-127.4 0,-191c0,-24.5 -0.4,-48.3 -8.5,-72.1c-8.2,-24.1 -21.6,-45 -38.6,-62c17,16.9 30.4,37.8 38.5,61.9c8.1,23.7 8.5,47.5 8.5,72.1c0,63.7 0,127.4 0,191c0,214.5 0,429.1 0,643.6c0,81.4 0,162.8 0,244.2c0.1,66.9 3.6,132.5 -50.4,183.7c-30.8,29.2 -70.3,44 -112.4,45c-241.9,0 -483.7,0 -725.6,0c0,0 0,0.1 0,0.1c241.9,0 483.8,0 725.7,0c42.1,-1 81.6,-15.8 112.4,-45c54,-51.2 50.5,-116.8 50.5,-183.7c-0.1,-81.5 -0.1,-162.9 -0.1,-244.2zm-700.9,-751.6c0.3,5.4 0.3,10.9 0.3,16.3c0,9.2 -0.3,18.4 -0.3,27.5c0,0.1 0,0.1 0,0.2c0,182.8 0,365.7 0,548.5c0,0.1 0,0.1 0,0.2c0,7.2 0,14.5 0,21.7c0,0.1 0,0.1 0,0.2c0,12 0,24.1 0,36.1c0,0.1 0,0.1 0,0.2c0,7 0,14 0,21c0,0.1 0,0.1 0,0.2c0,7.3 0,14.7 0,21.9c0,0.1 0,0.1 0,0.2c0,51.9 0,103.8 0,155.7c0,0.1 0,0.1 0,0.2c0,19 0,38.1 0,57.2c0,0.1 0,0.1 0,0.2c0,29.2 0,58.6 0,87.9c0,3.4 -1,6.3 -2.5,8.5c-14.9,28.1 -29.7,56.3 -44.6,84.4c-5.2,9.8 -20.8,9.8 -26,0c-8.4,-15.9 -16.8,-31.8 -25.2,-47.8c-9.3,-17.6 -21.4,-33.6 -21.9,-53.6c-0.2,-7.9 -0.2,-15.8 -0.2,-23.7c0,-13.3 0.2,-26.5 0.2,-39.8c0,-0.1 0,-0.1 0,-0.2c0,-5.3 0,-10.6 0,-15.8c0,-0.1 0,-0.1 0,-0.2c0,-12 0,-24.1 0,-36.1c0,-0.1 0,-0.1 0,-0.2c0,-7 0,-14 0,-21c0,-0.1 0,-0.1 0,-0.2c0,-7.3 0,-14.7 0,-21.9c0,-0.1 0,-0.1 0,-0.2c0,-51.9 0,-103.8 0,-155.7c0,-0.1 0,-0.1 0,-0.2c0,-0.3 0,-0.6 0,-0.8c0,-0.1 0,-0.1 0,-0.2c0,-18.7 0,-37.5 0,-56.2c0,-0.1 0,-0.1 0,-0.2c0,-176 0,-352 0,-527.9c0,-0.1 0,-0.1 0,-0.2c0,-15.5 -2,-35.9 -2.1,-56.5c0,-30 4.3,-60.2 25.6,-75.6c39.1,-28.3 94.3,-2 96.7,45.9zm-30.1,987.5c0,0 0,0 0,0c-0.9,-21.7 -1.5,-43.4 -2,-65.2c0,0 0,0 0,0c-19.3,0 -38.7,0 -58,0c0,0 0,0 0,0c0,13.1 0,26.2 0,39.3c0,7.6 -0.2,15.2 -0.2,22.7c0,2.5 0,5.1 0.1,7.6c0,0 0,0 0,0c0,0 0,0 0,0c0,-0.2 0,-0.3 0,-0.5c0,-4.8 1.2,2.4 4.6,8.8c0,0 0,0 0,0c4.9,9.2 9.7,18.4 14.5,27.6c0,0 0,0 0,0.1c3.6,6.9 7.3,13.7 10.9,20.6c10,-19 20,-37.9 30,-56.9c0,0 0,0 0,0c0.1,-1.4 0.2,-2.7 0.1,-4.1zm-0.5,-358c0,0 0,0 0,0c-19.8,0 -39.7,0 -59.5,0c0,0 0,0 0,0c0,7 0,14.1 0,21.2c0,2 0,4.1 0,6.1c19.8,0 39.5,0 59.2,0c0.1,-9.1 0.2,-18.2 0.3,-27.3l0,0zm-59.5,57.4c0,0 0,0.1 0,0c0,2.4 0,4.7 0,7c0,0 0,0.1 0,0.1c0,21.3 0,42.6 0,64c0,0 0,0.1 0,0.1c0,25.6 0,51 0,76.6c0,0 0,0.1 0,0.1c19.1,0 38.2,0 57.3,0c0.1,-49.2 0.8,-98.5 1.5,-147.8c0,0 0,0 0,0c0,0 0,-0.1 0,-0.1c-19.6,0 -39.2,0 -58.8,0zm0,178c0,9.1 0,18.2 -0.1,27.3c0,0 0.1,0 0.1,0c19.2,0 38.3,0 57.5,0c0,0 0.1,0 0.1,0c-0.1,-9.1 -0.2,-18.2 -0.3,-27.3c-19.1,0 -38.2,0 -57.3,0zm60.7,-853.7c0,-4 -0.2,-8 -0.7,-11.8c-4.6,-34.5 -55.1,-35.5 -60,-0.6c-0.1,0.9 -0.2,1.7 -0.2,2.6c0,2.1 0.2,4.3 0.2,6.4c0,0.4 0,0.8 0,1.2c-0.7,17.2 -0.9,34.4 -1,51.6c-0.1,34.4 0.8,68.8 1,103.1c0,3.4 0,6.9 0,10.3c0,141.8 0,283.6 0,425.4c19.9,0 39.9,0 59.8,0c0.1,-17.1 0.2,-34.3 0.2,-51.4c0,-170.2 0,-340.4 0,-510.6c0,-8.4 0.8,-17.4 0.7,-26.2zm-60.8,980.2c0,-4.8 1.2,2.4 4.6,8.8c0,0 0,0 0,0c0,0 0,0 0,0c-3.4,-6.5 -4.6,-13.6 -4.6,-8.8zm90.2,-947.4c0,-9.2 0.3,-18.4 0.3,-27.7c0,9.2 -0.3,18.4 -0.3,27.5c0,0.1 0,0.1 0,0.2zm-90.2,947.9c0,0 0,0 0,0c-0.1,-2.5 -0.1,-5.1 -0.1,-7.6c0,2.6 0,5.1 0.1,7.6zm43.1,96.4c-5.2,9.8 -20.8,9.8 -26,0c-8.4,-15.9 -16.8,-31.8 -25.2,-47.8c-9.3,-17.6 -21.4,-33.6 -21.9,-53.6c-0.2,-7.9 -0.2,-15.8 -0.2,-23.7c0,8 0,16 0.2,23.9c0.5,20 12.6,36 21.9,53.6c8.4,15.9 16.8,31.8 25.2,47.8c5.2,9.8 20.8,9.8 26,0c14.9,-28.1 29.7,-56.3 44.6,-84.4c1.6,-2.2 2.5,-5 2.5,-8.5c0,-0.1 0,-0.1 0,-0.2c0,3.4 -1,6.3 -2.5,8.5c-14.9,28.1 -29.7,56.3 -44.6,84.4zm-75.2,-1058.6c0,20.6 2.1,41.1 2.1,56.7c0,-0.1 0,-0.1 0,-0.2c0,-15.5 -2,-35.9 -2.1,-56.5zm-95.4,204.4c0,-166.7 0,-333.3 0,-500c0,0 0,0 0,0c0,166.6 0,333.1 0,499.7c0,272.4 0,544.8 0,817.3c0,57.6 0,115.3 0,172.9c-19.8,0 -39.6,0 -59.4,0c-33.3,0.4 -66.7,0.4 -100,0.4c0,0.1 0,0.2 0,0.3c33.3,0 66.7,0 100,0c19.8,0 39.6,0 59.4,0c0,-58 0,-115.6 0,-173.3c0,-272.4 0,-544.8 0,-817.3zm146.7,793.8c0,0 0,0 0,0c0,0 0,0 0,0c3.6,6.9 7.3,13.7 10.9,20.6c10,-19 20,-37.9 30,-56.9c0,0 0,0 0,0c-10,19 -20,37.9 -30,56.9c-3.6,-6.9 -7.3,-13.7 -10.9,-20.6zm38.9,-105.6c0.4,21.8 1.1,43.5 2,65.2c-0.9,-21.7 -1.5,-43.4 -2,-65.2z"/>
 </g>
</svg>