<?xml version="1.0" ?><svg viewBox="0 0 22.521 22.52" xmlns="http://www.w3.org/2000/svg"><g data-name="Layer 2" id="Layer_2"><g data-name="Layer 1" id="Layer_1-2"><path d="M20.814,3.184H16.151V1.706A1.708,1.708,0,0,0,14.445,0H8.075A1.708,1.708,0,0,0,6.369,1.706V3.184H1.706A1.708,1.708,0,0,0,0,4.89V19.449a1.8,1.8,0,0,0,2.161,1.706.114.114,0,0,1,.113.114A1.252,1.252,0,0,0,3.525,22.52h2.73a1.252,1.252,0,0,0,1.251-1.251.114.114,0,0,1,.114-.114H14.9a.114.114,0,0,1,.113.114,1.253,1.253,0,0,0,1.251,1.251H19a1.252,1.252,0,0,0,1.251-1.251.114.114,0,0,1,.114-.114,1.8,1.8,0,0,0,2.16-1.706V4.89A1.709,1.709,0,0,0,20.814,3.184ZM7.052,1.706A1.024,1.024,0,0,1,8.075.683h6.37a1.024,1.024,0,0,1,1.024,1.023V3.184H7.052ZM21.838,19.449a1.024,1.024,0,0,1-1.024,1.023c-.6-.054-1.224.081-1.25.8a.569.569,0,0,1-.569.569h-2.73a.569.569,0,0,1-.568-.569.8.8,0,0,0-.8-.8H7.62a.8.8,0,0,0-.8.8.569.569,0,0,1-.569.569H3.525a.569.569,0,0,1-.568-.569c-.025-.72-.655-.85-1.251-.8A1.025,1.025,0,0,1,.682,19.449V8.871h2.5c-.065.56.159,1.125.8,1.138H6.71c.636-.013.862-.579.8-1.138h7.508c-.064.56.159,1.125.8,1.138h2.73c.636-.013.862-.579.8-1.138h2.5ZM3.867,9.212V7.847a.114.114,0,0,1,.113-.114H6.71a.114.114,0,0,1,.114.114V9.212a.114.114,0,0,1-.114.114H3.98A.114.114,0,0,1,3.867,9.212Zm11.83,0V7.847a.114.114,0,0,1,.113-.114h2.73a.114.114,0,0,1,.114.114V9.212a.114.114,0,0,1-.114.114H15.81A.114.114,0,0,1,15.7,9.212Zm6.141-1.023h-2.5c.065-.56-.158-1.125-.8-1.138H15.81c-.636.012-.861.578-.8,1.138H7.506c.065-.56-.158-1.125-.8-1.138H3.98c-.636.012-.862.578-.8,1.138H.682V4.89A1.025,1.025,0,0,1,1.706,3.867H20.814A1.024,1.024,0,0,1,21.838,4.89Zm-7.393,5H12.739V11.487a.341.341,0,0,0-.341-.341H10.123a.341.341,0,0,0-.341.341v1.706H8.075a.342.342,0,0,0-.341.342v2.274a.341.341,0,0,0,.341.341H9.782v1.706a.341.341,0,0,0,.341.342H12.4a.342.342,0,0,0,.341-.342V16.15h1.706a.341.341,0,0,0,.341-.341V13.535A.342.342,0,0,0,14.445,13.193ZM14.1,15.468H12.4a.342.342,0,0,0-.342.341v1.706H10.464V15.809a.341.341,0,0,0-.341-.341H8.417V13.876h1.706a.341.341,0,0,0,.341-.341V11.828h1.592v1.707a.342.342,0,0,0,.342.341H14.1Z" data-name="medical equipment" id="medical_equipment"/></g></g></svg>