<?xml version="1.0" standalone="no"?>
<!DOCTYPE svg PUBLIC "-//W3C//DTD SVG 20010904//EN"
 "http://www.w3.org/TR/2001/REC-SVG-20010904/DTD/svg10.dtd">
<svg version="1.0" xmlns="http://www.w3.org/2000/svg"
 width="512.000000pt" height="512.000000pt" viewBox="0 0 512.000000 512.000000"
 preserveAspectRatio="xMidYMid meet">

<g transform="translate(0.000000,512.000000) scale(0.100000,-0.100000)"
 stroke="none">
<path d="M600 4599 c-37 -15 -68 -48 -80 -85 -24 -71 -16 -80 407 -505 l395
-396 -99 -65 c-145 -95 -284 -211 -413 -344 -135 -140 -277 -324 -286 -372
-14 -72 37 -139 112 -148 56 -7 89 17 175 132 171 228 430 459 657 584 l43 24
183 -183 183 -183 -76 -40 c-282 -149 -519 -382 -677 -664 -57 -102 -47 -181
27 -220 75 -38 139 -7 197 98 100 182 263 361 439 478 92 62 214 127 268 144
17 5 64 -38 254 -228 l234 -234 -49 -7 c-117 -15 -185 -30 -271 -60 -255 -91
-453 -267 -577 -513 -45 -89 -31 -173 34 -207 78 -40 142 -8 199 102 22 43 61
104 86 135 93 118 254 224 405 265 92 25 298 25 400 -1 l75 -18 780 -778 c619
-617 788 -780 818 -790 94 -30 187 63 157 157 -10 31 -377 403 -1939 1966
-1320 1321 -1939 1934 -1967 1947 -45 22 -57 23 -94 9z"/>
<path d="M2340 3940 c-120 -13 -259 -37 -371 -65 -157 -40 -154 -26 -36 -142
l102 -103 95 20 c273 55 584 57 860 4 525 -99 1015 -406 1339 -838 41 -54 88
-107 105 -117 100 -61 218 44 176 156 -17 45 -160 224 -270 339 -382 396 -870
648 -1420 731 -124 19 -460 27 -580 15z"/>
<path d="M2483 3202 c-9 -5 29 -48 115 -133 l127 -126 75 -11 c184 -27 419
-124 580 -240 160 -116 312 -285 402 -449 52 -96 85 -123 148 -123 59 0 104
33 119 86 12 43 3 76 -45 162 -151 276 -404 516 -698 664 -110 55 -291 119
-406 142 -141 28 -390 45 -417 28z"/>
<path d="M2489 1677 c-224 -63 -317 -315 -188 -510 59 -89 158 -139 277 -139
62 0 83 5 137 31 247 122 248 470 2 591 -73 36 -160 46 -228 27z"/>
</g>
</svg>
