<?xml version="1.0" ?><svg viewBox="0 0 22.105 22.105" xmlns="http://www.w3.org/2000/svg"><defs><style>.cls-1{fill:#1a171b;}</style></defs><g data-name="Layer 2" id="Layer_2"><g data-name="Layer 1" id="Layer_1-2"><path class="cls-1" d="M20.877,7.145H11.946a1.23,1.23,0,0,0-1.228,1.228v2.679a.335.335,0,0,0,.67,0V8.373a.558.558,0,0,1,.558-.558h8.931a.559.559,0,0,1,.559.558V18.756H11.388V16.411a.335.335,0,0,0-.67,0v4.466a1.23,1.23,0,0,0,1.228,1.228h8.931a1.23,1.23,0,0,0,1.228-1.228V8.373A1.23,1.23,0,0,0,20.877,7.145Zm.559,13.732a.559.559,0,0,1-.559.558H11.946a.558.558,0,0,1-.558-.558V19.425H21.436Zm-11.724.558H1.228a.558.558,0,0,1-.558-.559V19.425H9.711a.335.335,0,1,0,0-.669H.67V3.348h16.3V6.139a.335.335,0,0,0,.67,0V1.228A1.229,1.229,0,0,0,16.411,0H1.228A1.229,1.229,0,0,0,0,1.228V20.876a1.23,1.23,0,0,0,1.228,1.229H9.712A.335.335,0,0,0,9.712,21.435ZM.67,1.228A.558.558,0,0,1,1.228.67H16.411a.558.558,0,0,1,.558.558v1.45H.67Zm8.149.781a.335.335,0,0,1,0-.669A.335.335,0,0,1,8.819,2.009ZM9.154,20.43a.335.335,0,0,1-.669,0A.335.335,0,0,1,9.154,20.43Zm-4.019,0a.335.335,0,0,1-.67,0A.335.335,0,0,1,5.135,20.43Zm3.013-6.261v.567h6.923a.335.335,0,0,1,0,.67H8.148v.567l-1.561-.9Zm5.808-2.679,1.562.9-1.562.9v-.567H7.033a.335.335,0,0,1,0-.67h6.923Zm.432-2.91c.309-.3.783.172.474.474S14.077,8.883,14.388,8.58Zm1.688.237a.335.335,0,0,1,.67,0A.335.335,0,0,1,16.076,8.817ZM17.96,8.58c.306-.3.785.172.474.474S17.649,8.882,17.96,8.58Z" id="sync"/></g></g></svg>