<?xml version="1.0" encoding="UTF-8"?> <svg xmlns="http://www.w3.org/2000/svg" id="Слой_1" data-name="Слой 1" viewBox="0 0 67.32 62.61"> <defs> <style>.cls-1{fill:#ebebe9;}.cls-1,.cls-2,.cls-3,.cls-4{fill-rule:evenodd;}.cls-2{fill:#d0eaf1;}.cls-3{fill:#399;}.cls-4{fill:#676766;}</style> </defs> <path class="cls-1" d="M1284.72,437.23a9.78,9.78,0,0,0-1.53-1.11l-8.61,8.61h2.64l7.5-7.5Zm-2.75-1.74-9.24,9.24h-2.64l9.88-9.89a10.39,10.39,0,0,1,2,.65Zm-3.6-.88-10.13,10.12h-1.51c0-.44.09-.87.16-1.3l8.67-8.66a11.35,11.35,0,0,1,2-.19h0l.77,0Zm-5.59,1.09a11,11,0,0,0-2.89,2.07,10.83,10.83,0,0,0-2.07,2.89l5-5Zm6.28,9,6.59-6.59a9.94,9.94,0,0,1,1.15,1.5l-5.09,5.09Zm4.49,0,3.9-3.9a10.43,10.43,0,0,1,.71,1.94l-2,2Zm4.49,0h.43l0-.39Z" transform="translate(-1243.94 -418.78)"></path> <path class="cls-2" d="M1277.59,433.09h0a6.37,6.37,0,0,0,3.07-.79l2.55-2.55a6.38,6.38,0,0,0,.79-3.08l0-.34-6.74,6.75Zm6.12-8.32-8,8a6.51,6.51,0,0,1-1.77-.88l8.93-8.92a6,6,0,0,1,.87,1.77ZM1282,422l-9,9.06a6.53,6.53,0,0,1-1.09-1.56l8.58-8.58A6.3,6.3,0,0,1,1282,422Zm-2.92-1.57-7.71,7.71a6.45,6.45,0,0,1-.17-1.48,6.59,6.59,0,0,1,.1-1.09l5.22-5.22a6.5,6.5,0,0,1,1.09-.09A6.43,6.43,0,0,1,1279.06,420.44Z" transform="translate(-1243.94 -418.78)"></path> <path class="cls-1" d="M1306.58,472.93c-.32-.3-.64-.6-1-.87l-7.83,7.84h2.64l6.56-6.56c-.13-.14-.25-.28-.38-.41Zm-2.08-1.62-8.59,8.59h-2.64l9.45-9.46a11.28,11.28,0,0,1,1.78.87Zm-3.2-1.29-9.88,9.88h-2.64l10.15-10.16a10.83,10.83,0,0,1,2.37.28Zm-4.39-.1a10.88,10.88,0,0,0-4.89,2.25l-1.62,1.62a10.78,10.78,0,0,0-2.25,4.89l8.76-8.76Zm5.34,10,5.53-5.54a10.78,10.78,0,0,1,1,1.68l-3.86,3.86Zm4.49,0,2.53-2.53a10.5,10.5,0,0,1,.44,2.19l-.33.34Z" transform="translate(-1243.94 -418.78)"></path> <path class="cls-2" d="M1303.4,457.31c-.17-.17-.35-.32-.53-.48l-9,9c.15.19.3.36.47.54a7.76,7.76,0,0,0,.89.74l8.92-8.92a7,7,0,0,0-.74-.89Zm-1.66-1.2-8.61,8.61a6.51,6.51,0,0,1-.62-2l7.21-7.2a6.24,6.24,0,0,1,2,.61Zm-3.89-.6-5.31,5.31a6.37,6.37,0,0,1,1.79-3.51,6.48,6.48,0,0,1,3.52-1.8Zm-1.43,12.26,8.37-8.37a6.24,6.24,0,0,1,.48,2.16l-6.68,6.69a6.48,6.48,0,0,1-2.17-.48Zm4.27.22,4.32-4.33a6.33,6.33,0,0,1-1.61,2.72h0A6.56,6.56,0,0,1,1300.69,468Z" transform="translate(-1243.94 -418.78)"></path> <path class="cls-1" d="M1263.21,472.2a10.66,10.66,0,0,0-1.57-1.08l-8.77,8.78h2.65l7.69-7.7Zm-2.82-1.67L1251,479.9h-2.65l10-10a11.44,11.44,0,0,1,2,.6Zm-3.71-.78-10.14,10.15h-1.08a10.2,10.2,0,0,1,.29-1.85l8-8a10.48,10.48,0,0,1,2.58-.32h.36Zm-6.15,1.67a10.69,10.69,0,0,0-1.9,1.51,11.25,11.25,0,0,0-1.53,1.91l3.43-3.42Zm6.83,8.48,6.82-6.82a11.08,11.08,0,0,1,1.18,1.46L1260,479.9Zm4.49,0,4.19-4.2a10.34,10.34,0,0,1,.75,1.89l-2.3,2.31Zm4.49,0h.86c0-.27,0-.53-.08-.78Z" transform="translate(-1243.94 -418.78)"></path> <path class="cls-2" d="M1260.49,457a6.84,6.84,0,0,0-1.63-1l-8.42,8.42a6.3,6.3,0,0,0,1,1.62l9-9Zm-3-1.44L1250,463a6.86,6.86,0,0,1-.09-1.12,6.36,6.36,0,0,1,.21-1.64l4.55-4.55a6.3,6.3,0,0,1,1.64-.21,6.86,6.86,0,0,1,1.12.09Zm-5,11.38,9-9a6.68,6.68,0,0,1,.95,1.69l-8.25,8.24a6.36,6.36,0,0,1-1.69-.94Zm3.18,1.3,7.11-7.11a6.12,6.12,0,0,1,0,.74,6.4,6.4,0,0,1-.41,2.28l-3.72,3.72a6.39,6.39,0,0,1-2.27.41h0A6,6,0,0,1,1255.58,468.21Z" transform="translate(-1243.94 -418.78)"></path> <path class="cls-3" d="M1274.06,463.2l.07.07h0a5,5,0,0,0,1.48,1l6.47-6.47a4.89,4.89,0,0,0-1-1.48l-.07-.07-6.93,6.93Zm3,1.48,5.4-5.4a4.58,4.58,0,0,1,0,.53,4.92,4.92,0,0,1-4.9,4.9,4.71,4.71,0,0,1-.53,0Zm2.85-9.19-6.64,6.64a4.81,4.81,0,0,1-.57-2.07l5.14-5.15a5.11,5.11,0,0,1,2.07.58Zm-4.34-.15-2.45,2.45a4.88,4.88,0,0,1,2.45-2.45Z" transform="translate(-1243.94 -418.78)"></path> <path class="cls-4" d="M1281.31,433.65a12.52,12.52,0,0,1,5,3.06,12.38,12.38,0,0,1,3.63,8.77.75.75,0,0,1-.75.74H1266a.74.74,0,0,1-.75-.74,12.37,12.37,0,0,1,8.67-11.82,8.56,8.56,0,0,1-1.88-1.39,7.9,7.9,0,0,1,5.59-13.49,7.9,7.9,0,0,1,5.59,13.48h0a8.23,8.23,0,0,1-1.87,1.38Zm-4.45,14.79a.74.74,0,0,1,.74-.75.75.75,0,0,1,.75.75v5a6.36,6.36,0,0,1,3.76,1.83h0a6.41,6.41,0,0,1,1.87,4.52,6.33,6.33,0,0,1-1.12,3.61l4,4.07a.74.74,0,0,1-1.05,1.05l-4-4a6.38,6.38,0,0,1-8.45.12l-3.89,3.88a.75.75,0,0,1-1.06,0,.74.74,0,0,1,0-1.05l3.94-3.93a6.39,6.39,0,0,1,4.43-10.1v-5Zm-2.92,14.64h0l.06.06.12.12h0a4.91,4.91,0,0,0,3.47,1.43,4.9,4.9,0,1,0,0-9.8h0a4.91,4.91,0,0,0-3.66,8.17Zm-17.62-9.14a7.9,7.9,0,0,0-5.58,13.49,8,8,0,0,0,1.87,1.39,12.4,12.4,0,0,0-8.67,11.82.75.75,0,0,0,.75.75H1268a.76.76,0,0,0,.75-.75,12.39,12.39,0,0,0-8.68-11.82,8,8,0,0,0,1.87-1.39h0a7.91,7.91,0,0,0-5.59-13.49Zm4.54,3.37a6.43,6.43,0,0,1,0,9.07h0a6.42,6.42,0,0,1-4.53,1.87h0a6.41,6.41,0,1,1,0-12.81,6.44,6.44,0,0,1,4.54,1.87Zm3.18,15.62a10.89,10.89,0,0,1,3.16,7h-21.74a10.9,10.9,0,0,1,10.86-10.16h0a10.89,10.89,0,0,1,7.71,3.19Zm34.83-19a7.9,7.9,0,0,0-3.71,14.88,12.39,12.39,0,0,0-8.68,11.82.76.76,0,0,0,.75.75h23.28a.75.75,0,0,0,.75-.75,12.39,12.39,0,0,0-8.68-11.82,8,8,0,0,0,1.88-1.39h0a7.91,7.91,0,0,0-5.59-13.49Zm4.53,3.37a6.43,6.43,0,0,1,0,9.07h0a6.42,6.42,0,0,1-4.53,1.87h0a6.41,6.41,0,1,1,4.53-10.94Zm3.18,15.62a10.89,10.89,0,0,1,3.16,7H1288a10.9,10.9,0,0,1,10.87-10.16h0a10.89,10.89,0,0,1,7.71,3.19Zm-29-39.84h0a6.39,6.39,0,0,0,4.53-1.88h0a6.41,6.41,0,1,0-4.54,1.88Zm7.71,4.68a10.85,10.85,0,0,0-7.7-3.19h0a10.88,10.88,0,0,0-10.86,10.15h21.74A10.83,10.83,0,0,0,1285.3,437.77Z" transform="translate(-1243.94 -418.78)"></path> </svg> 