<?xml version="1.0" encoding="UTF-8"?> <svg xmlns="http://www.w3.org/2000/svg" id="Слой_1" data-name="Слой 1" viewBox="0 0 52.36 51.14"> <defs> <style>.cls-1{fill:#fcbf30;}.cls-1,.cls-2,.cls-3,.cls-4,.cls-5,.cls-6{fill-rule:evenodd;}.cls-2{fill:#d0eaf1;}.cls-3{fill:#399;}.cls-4{fill:#c0c7ca;}.cls-5{fill:#ebebeb;}.cls-6{fill:#676766;}</style> </defs> <path class="cls-1" d="M827.32,463.43a1.44,1.44,0,0,0-.38-.66h0a.92.92,0,0,0-.35-.24.78.78,0,0,0-.25-.07l-2.14,2.14a2.06,2.06,0,0,0,.07.75,1.49,1.49,0,0,0,.47.75l2.6-2.6v-.06Zm-1.27,2.77,1.07-1.06a2.28,2.28,0,0,1-1,1Z" transform="translate(-813.95 -424.51)"></path> <path class="cls-2" d="M839.46,440.92a1.45,1.45,0,0,0-.3,0,1.33,1.33,0,0,0-1,.55,2.29,2.29,0,0,0-.49,1.31l1.82-1.82Zm-1.6,3,2.42-2.41a2.41,2.41,0,0,1,.4,1.37c0,.09,0,.19,0,.29L839,444.91a1.4,1.4,0,0,1-.83-.53A2.25,2.25,0,0,1,837.86,444Z" transform="translate(-813.95 -424.51)"></path> <path class="cls-3" d="M857.93,437.82h0l-2.39,2.39a2,2,0,0,0,.33.58,1.45,1.45,0,0,0,.66.48l1.9-1.9v-.06a2.39,2.39,0,0,0-.49-1.48Zm-.91-.53-1.61,1.61a2.24,2.24,0,0,1,.45-1.08,1.36,1.36,0,0,1,1-.54Z" transform="translate(-813.95 -424.51)"></path> <path class="cls-4" d="M849.25,441.52l.1,0,13.94-14-.16,0-1.66-.21-12.22,12.23v2Zm2.37-.88,3-3a3.66,3.66,0,0,0-.39,1.66,2.23,2.23,0,0,0,0,.37l-2.62,1Zm4.29-4.29,8.36-8.37a1.72,1.72,0,0,1,.31.29,2.23,2.23,0,0,1,.5,1l-7.14,7.15a2.31,2.31,0,0,0-1-.25,2.22,2.22,0,0,0-1,.23Zm2.83.64,6.42-6.42v2.06l-5.71,5.7a3.32,3.32,0,0,0-.62-1.23l-.09-.11Zm.82,2.66,5.6-5.6v2.05L849.25,452v-2l7.49-7.49h.16a2.47,2.47,0,0,0,1.93-1,3.44,3.44,0,0,0,.73-1.85Zm-3.9,2.47-6.41,6.42v-2.05l5.42-5.42a4.61,4.61,0,0,0,.29.43,2.74,2.74,0,0,0,.7.62Zm-2.75-.73-3.66,3.67V443l.41-.41,3.25-1.21Zm-3.66,12.05,15.91-15.91v2.05l-15.91,15.91v-2.05Zm0,3.49L865.16,441v2.05L849.25,459v-2Zm0,3.47v2.06l15.91-15.92v-2l-15.91,15.9Zm0,3.49v2L865.16,450v-2l-15.91,15.92Zm0,3.47v2.05l15.91-15.91v-2.05l-15.91,15.91Zm0,3.48v2.05L865.16,457v-2.05l-15.91,15.91Zm0,3.48v.13l2.21-.3,13.7-13.69v-2l-15.91,15.91Zm3.86-.38,12-12.05v2.05l-9.69,9.69-2.36.31Zm4-.53,8-8v2.05l-5.68,5.68-2.36.31Zm4-.53,4-4v1.46a2.61,2.61,0,0,1-.1.69l-1.54,1.53a1.53,1.53,0,0,1-.37.08l-2,.27Zm-.93-45.74-11,11v-2.05l9.13-9.13,1.82.22Zm-3.09-.38-7.86,7.86v-2.05l6-6,1.82.23Zm-3.1-.39-4.76,4.77v-2.05l2.94-2.95,1.82.23Zm-3.09-.38-1.67,1.67v-1.88Z" transform="translate(-813.95 -424.51)"></path> <path class="cls-5" d="M836.72,448.57l-2.46,4.51,9.9-9.89-2.18.13-.19.18a3.45,3.45,0,0,1-.69,1.61,2.52,2.52,0,0,1-1.89,1l-2.49,2.49Zm-4.17,7.66,13.13-13.13,2.17-.13-15.67,15.67V456.9l.37-.67Zm-.37,3.84,15.91-15.9v2l-15.91,15.91v-2.05Zm0,3.48,15.91-15.91v2.05L832.18,465.6v-2.05Zm0,3.48,15.91-15.91v2.05l-15.91,15.91V467Zm0,3.48v1.84l.19,0,15.72-15.72v-2l-15.91,15.91Zm1.45,2,1.81.24,12.65-12.65v-2.05l-14.46,14.46Zm3.08.4,1.34.18.47.06,9.57-9.57v-2.05l-11.38,11.38Zm3.07.41,1.81.24,6.5-6.5v-2l-8.31,8.31Zm3.07.41,1.82.23,3.42-3.42v-2.05l-5.24,5.24Zm3.08.4,2.16-2.16v2.05l-.35.35Z" transform="translate(-813.95 -424.51)"></path> <path class="cls-5" d="M832.18,454.5l1.65-3-1.65,1.65v1.39Zm3.38-6.19-3.38,3.37v-2L837,444.8a3.46,3.46,0,0,0,.22.31l0,.05-1.71,3.15Zm1-4.51a3.8,3.8,0,0,1-.11-.89,3.55,3.55,0,0,1,.23-1.28l-4.53,4.53v2l4.41-4.41Zm1.93-4a2.33,2.33,0,0,1,1.82.23l7.75-7.76v-2.05l-9.57,9.58Zm2.59.89,7-7v2l-6.33,6.34a3.55,3.55,0,0,0-.65-1.4Zm2.1,1.38,4.88-4.89v2.05L845.38,442l-2.17.13Zm3.69-.22,1.19-.07v-1.11l-1.19,1.18Zm1.19-13.05-15.91,15.91v-2.05l15.91-15.91v2.05Zm-.5-3-15.41,15.41V439.2l13.06-13.07,2.35-.29Zm-4,.5-11.43,11.43v-2l9.09-9.09,2.34-.29Zm-4,.49-7.45,7.46v-2.05l5.12-5.12,2.33-.29Zm-4,.5-2.34.29-1.14,1.14v2.05Z" transform="translate(-813.95 -424.51)"></path> <path class="cls-4" d="M831,427.76l-1.17-.14-14.74,14.73v2L831,428.49v-.73Zm-2.44-.31-13.47,13.46v-2l11.64-11.64,1.83.22Zm-3.1-.38-10.37,10.37v-2.05l8.55-8.55,1.82.23Zm-3.1-.39L815.11,434v-2l5.45-5.45,1.82.22Zm-3.09-.38-4.18,4.18v-2.05l2.35-2.35.25,0,1.58.2Zm-4.18,19.53L831,429.92V432l-15.91,15.91v-2.05Zm0,3.47L831,433.39v2.05l-15.91,15.91V449.3Zm0,3.48L831,436.88v2l-15.91,15.91v-2.05Zm0,3.49L831,440.35v2l-15.91,15.91v-2Zm0,3.47L831,443.84v2l-15.91,15.91v-2.05Zm0,3.48v2L831,449.36v-2.05l-15.91,15.91Zm0,3.48v2.05L831,452.84v-2L815.11,466.7Zm0,3.48v1.63a2.47,2.47,0,0,0,0,.39l7.92-7.91a3.63,3.63,0,0,1,.26-1,3.53,3.53,0,0,1,1.54-1.74,2.82,2.82,0,0,1,1.21-.33l4.95-4.95v-2.05l-15.91,15.91Zm.46,3,7.57-7.56v0a2.62,2.62,0,0,0,.77,1.25L816.78,474h0a2.41,2.41,0,0,1-.85-.48,2.73,2.73,0,0,1-.33-.35Zm2.65.84,2.36-.32L831,463.28v-2l-2.48,2.49a3.71,3.71,0,0,1-.29,1.7h0a3.51,3.51,0,0,1-1.54,1.73,2.5,2.5,0,0,1-1.86.25L818.22,474Zm4-.53,8.79-8.8v2.05l-6.43,6.44-2.36.31Zm4-.53,4.79-4.79v2.05l-2.42,2.43-2.37.31Zm4-.53.78-.78v.68l-.78.1ZM831,459.8v-1.33l-2.95,3.86a2.4,2.4,0,0,1,.16.27Z" transform="translate(-813.95 -424.51)"></path> <path class="cls-6" d="M831,427.72l-13.31-1.65a2.4,2.4,0,0,0-1,.07,2.32,2.32,0,0,0-.84.49,2.18,2.18,0,0,0-.59.78,2.28,2.28,0,0,0-.2.95v43.41a2.23,2.23,0,0,0,.79,1.74,2.27,2.27,0,0,0,.85.48l0,0a2.37,2.37,0,0,0,.93.06L831,472.31V458.43l-2.95,3.87a2.59,2.59,0,0,1,.36.77,3.49,3.49,0,0,1-.18,2.32h0a3.53,3.53,0,0,1-1.54,1.74,2.5,2.5,0,0,1-2.1.17l-.11-.05a2.51,2.51,0,0,1-1.35-1.63,3.63,3.63,0,0,1,1.71-4.05,2.46,2.46,0,0,1,2.16-.15l.2.1,3.8-5V427.72Zm1.16,26.74,5.09-9.33,0-.06a3.6,3.6,0,0,1,0-4.4,2.4,2.4,0,0,1,3.87,0,3.37,3.37,0,0,1,.67,1.47l6.32-.38v-16l-15.91,2v26.74Zm6-8.62a2.39,2.39,0,0,0,1,.2,2.51,2.51,0,0,0,1.94-1,3.51,3.51,0,0,0,.72-1.78l6.27-.37v31.49l-10-1.32-5.87-.78V456.86l6-11Zm11-4.36,5-1.84a2.36,2.36,0,0,1,0-.37,3.49,3.49,0,0,1,.74-2.2,2.4,2.4,0,0,1,3.87,0,3.6,3.6,0,0,1,0,4.4,2.4,2.4,0,0,1-3.87,0,3.36,3.36,0,0,1-.43-.71l-5.28,1.95v31.7l13.9-1.83a2.33,2.33,0,0,0,1.44-.77,2.29,2.29,0,0,0,.57-1.53V429.77a2.33,2.33,0,0,0-.58-1.54,2.29,2.29,0,0,0-1.45-.76l-13.88-1.72v15.73Zm8.68-3.69a2.48,2.48,0,0,1,0,3,1.26,1.26,0,0,1-2.07,0,2.19,2.19,0,0,1-.41-.87h0a2.91,2.91,0,0,1-.06-.6,2.36,2.36,0,0,1,.48-1.48,1.26,1.26,0,0,1,2.07,0Zm-17.73,3.6a2.51,2.51,0,0,1,0,2.95,1.36,1.36,0,0,1-1,.55,1.33,1.33,0,0,1-1-.55,2.47,2.47,0,0,1,0-2.95,1.31,1.31,0,0,1,1-.54,1.35,1.35,0,0,1,1,.54Zm-12.88,22a2.35,2.35,0,0,1-.13,1.55h0a2.33,2.33,0,0,1-1,1.17,1.35,1.35,0,0,1-1.17.1h0a1.36,1.36,0,0,1-.73-.91,2.41,2.41,0,0,1,.12-1.55,2.43,2.43,0,0,1,1-1.17,1.39,1.39,0,0,1,1.17-.1,1.21,1.21,0,0,1,.35.24h0a1.49,1.49,0,0,1,.38.66Zm8.45-37.28,12.81-1.59h.09a.47.47,0,0,1,.17,0l.26,0,14.17,1.76a3.53,3.53,0,0,1,2.18,1.15,3.49,3.49,0,0,1,.87,2.3v40.51a3.46,3.46,0,0,1-3,3.44l-14.18,1.87-.28,0a.63.63,0,0,1-.24,0l-.37-.05h0l-16.32-2.15-.3,0-.3,0-13.42,1.77a3.5,3.5,0,0,1-1.41-.1h-.05a3.48,3.48,0,0,1-1.28-.72,3.41,3.41,0,0,1-.88-1.17,3.51,3.51,0,0,1-.31-1.44V428.36a3.43,3.43,0,0,1,.31-1.43,3.38,3.38,0,0,1,.87-1.17,3.39,3.39,0,0,1,2.72-.84l13.46,1.68h.58Z" transform="translate(-813.95 -424.51)"></path> </svg> 