<?xml version="1.0" encoding="UTF-8"?> <svg xmlns="http://www.w3.org/2000/svg" id="Слой_1" data-name="Слой 1" viewBox="0 0 52.28 52.28"> <defs> <style>.cls-1{fill:#399;}.cls-1,.cls-2{fill-rule:evenodd;}.cls-2{fill:#676766;}</style> </defs> <path class="cls-1" d="M834.54,451.46l-5.5,7.12v0a1,1,0,0,0-.19.71l0,.11,13-13h-2.29l-5.08,5.08Zm-4.93,8.81,13.89-13.89h2.28l-4.1,4.1h-.91a.66.66,0,0,0-.51.25h0l-3.94,5.11-5.42,5.42-1.29-1Zm13.66-9.79h2.29l4.11-4.11h-2.3l-4.1,4.1Zm3.89,0,16.67-16.68v2.28l-4.2,4.21a.62.62,0,0,0-.64-.5.61.61,0,0,0-.54.32l-1.8,3.16-7.21,7.21Zm3.87,0h1.52l2-3.5L851,450.47Zm8.66-8.66,0,1.12,1.15,0,2.94-2.94v-2.28l-4.14,4.14Zm2.85,1,1.29,0v-1.25l-1.29,1.29Zm1.29-10.63v-2.28l-9.92,9.92-3,5.25,12.89-12.89Zm0-3.87v-1.28l-2.16,1.16-9.91,9.9,0,.06,2.37-1.16h0a.64.64,0,0,1,.6,0,.61.61,0,0,1,.19.17l8.87-8.87Zm-5.61,1.73-4.93,2.65-2.8,2.8.75,1.54Z" transform="translate(-814 -423.94)"></path> <path class="cls-2" d="M828,457.81l9.62-12.46a.63.63,0,0,1,.53-.25h11.3l3.41-6-1.1.54a.65.65,0,0,1-.86-.3l-2.36-4.81a.65.65,0,0,1,.27-.85h0l15.35-8.24a.64.64,0,0,1,.87.26.66.66,0,0,1,.07.3h0v17.44a.65.65,0,0,1-.65.64h0l-5.31.19a.64.64,0,0,1-.66-.62l0-.92-5,8.72a.63.63,0,0,1-.58.33H841.09l-7.81,10.12a2.26,2.26,0,0,1-3.16.4l-1.7-1.31h0a2.24,2.24,0,0,1-.85-1.5,2.21,2.21,0,0,1,.45-1.66Zm37.61,9.59H822.81V424.59a.64.64,0,1,0-1.28,0V467.4h-6.89a.65.65,0,0,0,0,1.29h6.89v6.88a.64.64,0,1,0,1.28,0v-6.88h42.82a.65.65,0,0,0,0-1.29Zm-27.16-21L829,458.58v0a1,1,0,0,0-.19.71,1,1,0,0,0,.36.64h0l1.7,1.31a.95.95,0,0,0,1.35-.17l8-10.36h0a.63.63,0,0,1,.5-.25l11.78,0,5.9-10.36a.64.64,0,0,1,1.2.3l.09,2.53,4.09-.14V427.05L850,434.49l1.81,3.68,2.37-1.16h0a.64.64,0,0,1,.6,0,.63.63,0,0,1,.24.87L850.42,446a.64.64,0,0,1-.57.35Z" transform="translate(-814 -423.94)"></path> </svg> 