<?xml version="1.0" standalone="no"?>
<!DOCTYPE svg PUBLIC "-//W3C//DTD SVG 20010904//EN"
 "http://www.w3.org/TR/2001/REC-SVG-20010904/DTD/svg10.dtd">
<svg version="1.0" xmlns="http://www.w3.org/2000/svg"
 width="512.000000pt" height="512.000000pt" viewBox="0 0 512.000000 512.000000"
 preserveAspectRatio="xMidYMid meet">

<g transform="translate(0.000000,512.000000) scale(0.100000,-0.100000)"
fill="#000000" stroke="none">
<path d="M2521 5060 c-13 -43 -49 -85 -267 -312 -285 -295 -428 -495 -561
-783 -149 -321 -252 -780 -278 -1240 -18 -299 73 -770 211 -1091 126 -297 367
-611 678 -887 l79 -70 13 44 c23 74 54 239 69 364 18 146 19 149 50 163 25 12
67 3 79 -16 3 -6 17 -75 31 -153 35 -210 58 -273 119 -331 l49 -47 57 49 c116
101 287 295 396 450 261 371 414 770 455 1185 14 148 6 459 -16 605 -72 469
-263 928 -556 1335 -106 148 -195 253 -352 418 -141 148 -185 209 -219 300
-11 31 -22 57 -23 57 -1 0 -7 -18 -14 -40z m-171 -2128 c0 -1373 -2 -1573 -15
-1599 -18 -36 -35 -121 -35 -175 0 -22 -4 -38 -9 -36 -28 10 -215 242 -294
363 -159 247 -268 582 -312 961 -19 163 -19 262 0 454 63 627 231 1087 531
1455 103 127 118 144 127 144 4 1 7 -705 7 -1567z"/>
<path d="M2536 1130 c-3 -25 -13 -94 -22 -154 -8 -59 -29 -162 -45 -227 l-30
-119 20 -63 c27 -89 41 -196 49 -372 l7 -150 65 -22 65 -22 2 87 c5 172 24
448 34 487 6 22 18 55 27 74 15 33 15 34 -11 53 -59 43 -99 150 -136 363 -17
104 -19 108 -25 65z"/>
</g>
</svg>
