<svg xmlns="http://www.w3.org/2000/svg" viewBox="0 0 272.5 48.43"><title>EuroChem logo</title><path d="M431.43,512h-6.75l-19.91-24.21V505.5a6.5,6.5,0,0,0-6.5,6.5H385l19.83,24.21v-17.8a6.45,6.45,0,0,1-5.23-6.41,5.93,5.93,0,1,1,11.81,0H424.6l-16.37,20.08,3.46,4.13L433.88,512l-22.19-24.21Z" transform="translate(-375.75 -487.79)" style="fill:#015580"/><polygon points="22.19 0 0 24.21 22.19 48.43 2.36 24.21 9.28 24.21 25.65 4.22 22.19 0" style="fill:#015580"/><path d="M514.78,515.71a7.08,7.08,0,0,0,3-.67,3.13,3.13,0,0,0,1.27-2.87v-4a3.48,3.48,0,0,0-1.1-2.87,5.27,5.27,0,0,0-3.21-.76H499.35V522h4.81v-6.24h3.29c.25.17,6.92,6.24,6.92,6.24h7.17s-6.41-5.06-7.85-6.24Zm-10.55-3.8V508.2h8.94c.76,0,1,.17,1.1.25a.7.7,0,0,1,.25.67V511c0,.42,0,.59-.25.67a2.51,2.51,0,0,1-1.18.17C513,511.92,505,511.92,504.24,511.92Z" transform="translate(-375.75 -487.79)" style="fill:#015580"/><path d="M455.31,513.1h9.36v-4.3h-9.36v-3.71h16v-4.3H449.82v21.09h21.77v-4.56H455.31Z" transform="translate(-375.75 -487.79)" style="fill:#015580"/><path d="M490.74,517.91H479.86v-13.5H475v13.25a4.47,4.47,0,0,0,1.1,3.37,5.52,5.52,0,0,0,3.63.93h11.05c1.86,0,3-.25,3.71-.93a4.52,4.52,0,0,0,1.1-3.29V504.41h-4.81C490.74,504.41,490.74,517.15,490.74,517.91Z" transform="translate(-375.75 -487.79)" style="fill:#015580"/><path d="M644.62,504.41s-7.42,9.36-8,10.12c-.59-.76-8-10.12-8-10.12h-3.8v17.46h4.81v-10c1.18,1.52,6.33,8,6.33,8h1.18s5.15-6.5,6.33-8v10h4.81V504.41Z" transform="translate(-375.75 -487.79)" style="fill:#015580"/><path d="M606.91,514.78H615V511h-8.1V508.2h13.84v-3.8H602v17.46h18.9v-4h-14v-3.12Z" transform="translate(-375.75 -487.79)" style="fill:#015580"/><path d="M540.6,504.41h-13c-1.77,0-2.87.25-3.54.93-1,.93-1,2.7-1,3.46v8.77c0,.67,0,2.45.93,3.37q1,1,3.8,1H540.6c1.35,0,2.87-.08,3.8-1a4.75,4.75,0,0,0,.93-3.12v-9a4.93,4.93,0,0,0-.93-3.37C543.3,504.41,541.36,504.41,540.6,504.41Zm-.17,13.5H527.78v-9.45h12.65Z" transform="translate(-375.75 -487.79)" style="fill:#015580"/><path d="M593.24,510.82h-12v-6.33h-4.81V522h4.81v-7h12v7h4.81V504.41h-4.81Z" transform="translate(-375.75 -487.79)" style="fill:#015580"/><path d="M566.84,500.78H554.69c-1.18,0-3,0-4.22,1.1s-1.27,3.21-1.27,4.13v10.71c0,.84,0,3,1.27,4.13s3,1.1,4.22,1.1h12.15c1.18,0,3,0,4.22-1.1s1.27-3.21,1.27-4.13v-2.78h-5.57v3.46h-11.9V505.34h11.9v3.12h5.57V506c0-.84,0-3-1.27-4.13C570,500.78,568,500.78,566.84,500.78Z" transform="translate(-375.75 -487.79)" style="fill:#015580"/></svg>