<?xml version="1.0" encoding="utf-8"?>
<!-- Generator: Adobe Illustrator 16.0.0, SVG Export Plug-In . SVG Version: 6.00 Build 0)  -->
<!DOCTYPE svg PUBLIC "-//W3C//DTD SVG 1.1//EN" "http://www.w3.org/Graphics/SVG/1.1/DTD/svg11.dtd">
<svg version="1.1" id="Layer_1" xmlns="http://www.w3.org/2000/svg" xmlns:xlink="http://www.w3.org/1999/xlink" x="0px" y="0px"
	 width="340.154px" height="128.886px" viewBox="0 0 340.154 128.886" enable-background="new 0 0 340.154 128.886"
	 xml:space="preserve">
<path fill="#55565A" d="M142.761,52.87c0,7.975,4.166,13.029,12.381,15.023l10.51,2.592c5.777,1.428,8.791,2.322,8.791,5.57
	c0,4.818-5.441,5.83-10.006,5.83c-9.162,0-10.15-5.285-10.15-7.559V73.39H141.97v0.938c0,2.635,0.555,7.67,4.271,11.807
	c3.956,4.398,10.345,6.629,18.989,6.629c3.595,0,21.531-0.871,21.531-18.074c0-9.949-6.916-13.064-14.391-14.951
	c-0.008-0.004-12.753-3.1-12.753-3.1c-2.548-0.594-4.827-1.389-4.827-4.559c0-5.07,6.836-5.326,8.207-5.326
	c8.863,0,9.467,4.971,9.725,7.094l0.103,0.826h12.207v-0.939c0-6.633-4.474-17.859-21.242-17.859
	C148.286,35.874,142.761,44.653,142.761,52.87"/>
<path fill="#55565A" d="M223.06,37.241v35.43c0,6.223-2.953,9-9.575,9c-5.306,0-8.349-3.465-8.349-9.502V37.241h-12.75v35.502
	c0,18.068,14.906,20.02,21.313,20.02c14.464,0,22.108-7.172,22.108-20.74V37.241H223.06"/>
<path fill="#55565A" d="M243.19,37.241v54.152h41.623V80.519c0,0-27.116,0-28.874,0c0-1.529,0-11.07,0-12.598
	c1.741,0,25.418,0,25.418,0V57.044c0,0-23.677,0-25.418,0c0-1.414,0-7.51,0-8.924c1.752,0,27.723,0,27.723,0V37.241H243.19"/>
<path fill="#55565A" d="M322.564,37.241c0,0-15.864,16.896-18.602,19.812c0-3.742,0-19.812,0-19.812h-12.748v54.152h12.748
	c0,0,0-17.539,0-18.268c0.399-0.412,2.999-3.084,4.059-4.172c1.198,1.705,15.758,22.439,15.758,22.439h16.375
	c0,0-22.247-30.49-23.154-31.732c1.072-1.076,22.342-22.42,22.342-22.42H322.564"/>
<g>
	<defs>
		<path id="SVGID_1_" d="M86.027,73.937c-0.539,0.537-18.623,18.359-19.892,19.637c2.462,1.768,13.032,8.34,27.164,3.494
			c1.075-0.389,2.971-0.871,4.082-1.404l1.127-1.209c3.418-3.971,7.901-9.324,10.422-20.518
			C101.343,70.724,91.33,69.569,86.027,73.937"/>
	</defs>
	<clipPath id="SVGID_2_">
		<use xlink:href="#SVGID_1_"  overflow="visible"/>
	</clipPath>
	
		<linearGradient id="SVGID_3_" gradientUnits="userSpaceOnUse" x1="-220.439" y1="408.3252" x2="-219.439" y2="408.3252" gradientTransform="matrix(-60.3422 51.8714 51.8714 60.3422 -34370.9219 -13139.4111)">
		<stop  offset="0" style="stop-color:#C9C8C9"/>
		<stop  offset="0.295" style="stop-color:#C9C8C9"/>
		<stop  offset="0.3821" style="stop-color:#C3C2C3"/>
		<stop  offset="0.5027" style="stop-color:#B1B0B2"/>
		<stop  offset="0.643" style="stop-color:#949396"/>
		<stop  offset="0.7969" style="stop-color:#6B6B6F"/>
		<stop  offset="0.8696" style="stop-color:#55565A"/>
		<stop  offset="1" style="stop-color:#55565A"/>
	</linearGradient>
	<polygon clip-path="url(#SVGID_2_)" fill="url(#SVGID_3_)" points="124.918,88.169 84.321,123.067 50.147,83.313 90.745,48.415 	
		"/>
</g>
<g>
	<defs>
		<path id="SVGID_4_" d="M86.027,51.179c5.056,5.062,16.794,5.49,22.268,1.246c-1.32-5.691-6.574-15.689-12.215-20.512l-1.566-1.438
			c-4.25-3.562-7.811-5.873-13.279-8.082l-2.894-1.016c0,0-4.598-1.186-4.603-1.186c-3.002-0.619-6.408-0.889-9.492-0.889
			c-3.072,0-6.158,0.32-9.164,0.955c0,0-4.81,1.295-4.815,1.297l-2.734,0.984c-4.049,1.635-7.662,4.031-11.056,6.74
			c16.556-4.928,28.316,4.721,28.502,4.877C64.978,34.157,85.455,50.608,86.027,51.179"/>
	</defs>
	<clipPath id="SVGID_5_">
		<use xlink:href="#SVGID_4_"  overflow="visible"/>
	</clipPath>
	
		<linearGradient id="SVGID_6_" gradientUnits="userSpaceOnUse" x1="-223.4497" y1="409.8877" x2="-222.4492" y2="409.8877" gradientTransform="matrix(48.723 53.9767 53.9767 -48.723 -11177.1367 32056.3984)">
		<stop  offset="0" style="stop-color:#FFED7F"/>
		<stop  offset="0.0449" style="stop-color:#FFED7F"/>
		<stop  offset="0.1149" style="stop-color:#FFE960"/>
		<stop  offset="0.2003" style="stop-color:#FFE643"/>
		<stop  offset="0.2954" style="stop-color:#FFE32A"/>
		<stop  offset="0.402" style="stop-color:#FFE017"/>
		<stop  offset="0.5265" style="stop-color:#FFDF0A"/>
		<stop  offset="0.6859" style="stop-color:#FFDE02"/>
		<stop  offset="1" style="stop-color:#FFDD00"/>
	</linearGradient>
	<polygon clip-path="url(#SVGID_5_)" fill="url(#SVGID_6_)" points="76.049,-16.418 126.879,39.894 68.721,92.392 17.891,36.079 	
		"/>
</g>
<g>
	<defs>
		<path id="SVGID_7_" d="M33.043,96.841c4.215,4.105,9.089,7.314,14.507,9.502l2.741,0.98l4.81,1.307
			c3.007,0.629,6.096,0.951,9.178,0.951c3.077,0,6.161-0.207,9.164-0.836c0,0,4.914-1.234,4.918-1.238l3.251-1.164
			c4.048-1.637,8.101-4.025,11.495-6.748c-16.559,4.932-29.361-4.707-29.5-4.816l-0.028-0.023c0,0-27.021-27.018-28.447-28.441
			c-1.306,1.824-5.239,8.072-5.239,16.963c0,2.957,0.441,6.209,1.563,9.666c0.411,1.227,0.923,2.471,1.517,3.736L33.043,96.841"/>
	</defs>
	<clipPath id="SVGID_8_">
		<use xlink:href="#SVGID_7_"  overflow="visible"/>
	</clipPath>
	
		<linearGradient id="SVGID_9_" gradientUnits="userSpaceOnUse" x1="-218.6206" y1="410.7627" x2="-217.6206" y2="410.7627" gradientTransform="matrix(-54.8619 -47.9507 -47.9507 54.8619 7779.9858 -32916.2266)">
		<stop  offset="0" style="stop-color:#969598"/>
		<stop  offset="0.295" style="stop-color:#969598"/>
		<stop  offset="0.2961" style="stop-color:#959598"/>
		<stop  offset="0.472" style="stop-color:#79797D"/>
		<stop  offset="0.6486" style="stop-color:#656569"/>
		<stop  offset="0.8247" style="stop-color:#595A5E"/>
		<stop  offset="1" style="stop-color:#55565A"/>
	</linearGradient>
	<polygon clip-path="url(#SVGID_8_)" fill="url(#SVGID_9_)" points="65.73,140.903 8.454,90.843 57.269,34.991 114.545,85.052 	"/>
</g>
<g>
	<defs>
		<path id="SVGID_10_" d="M31.866,33.216c-4.115,4.221-7.316,9.105-9.5,14.516l-0.99,2.734l-1.302,4.818
			c-0.631,2.994-0.944,6.078-0.944,9.162s0.313,6.176,0.944,9.176l1.302,4.812l0.99,2.736c1.639,4.061,4.028,7.678,6.751,11.059
			c-1.001-3.352-1.463-6.537-1.463-9.439c0-11.418,6.179-18.9,6.263-19l0.032-0.039c0,0,27.023-27.018,28.449-28.441
			c-2.469-1.764-13.037-8.344-27.186-3.494c-1.057,0.387-2.155,0.84-3.253,1.367L31.866,33.216"/>
	</defs>
	<clipPath id="SVGID_11_">
		<use xlink:href="#SVGID_10_"  overflow="visible"/>
	</clipPath>
	
		<linearGradient id="SVGID_12_" gradientUnits="userSpaceOnUse" x1="-221.7017" y1="413.4463" x2="-220.7017" y2="413.4463" gradientTransform="matrix(41.3926 -40.9647 -40.9647 -41.3926 26132.1016 8113.3506)">
		<stop  offset="0" style="stop-color:#C4BD70"/>
		<stop  offset="0.354" style="stop-color:#C4BD70"/>
		<stop  offset="0.9534" style="stop-color:#969300"/>
		<stop  offset="1" style="stop-color:#969300"/>
	</linearGradient>
	<polygon clip-path="url(#SVGID_11_)" fill="url(#SVGID_12_)" points="-13.5,59.259 40.989,5.333 95.029,59.937 40.54,113.862 	"/>
</g>
<path fill="#B8B7B9" d="M101.65,31.991c7.589,8.695,12.206,20.049,12.206,32.451c0,12.41-4.617,23.76-12.206,32.445
	c-1.553,1.816-3.217,3.465-5.018,5.02c-0.804,0.654-1.615,1.309-2.417,1.961c-0.552,0.404-1.104,0.807-1.711,1.211
	c-2.957,2.061-6.169,3.816-9.589,5.223c-5.727,2.311-12.004,3.572-18.53,3.572c-6.63,0-13.012-1.311-18.835-3.725
	c-3.263-1.406-6.428-3.111-9.345-5.17c-0.544-0.404-1.1-0.805-1.651-1.207l-0.055-0.051c-0.851-0.654-1.655-1.299-2.459-2.014
	c-1.812-1.551-3.515-3.26-5.071-5.072C19.531,88.005,15.018,76.7,15.018,64.442c0-12.311,4.513-23.551,11.951-32.248
	c1.556-1.809,3.259-3.512,5.071-5.066c0.804-0.709,1.608-1.363,2.459-2.014c0,0,0.055,0,0.055-0.049
	c0.551-0.41,1.107-0.803,1.651-1.201c2.917-1.969,6.082-3.725,9.345-5.076c5.823-2.41,12.205-3.771,18.835-3.771
	c6.526,0,12.804,1.305,18.53,3.613c3.42,1.367,6.632,3.123,9.589,5.176c0.606,0.357,1.159,0.809,1.711,1.219
	c0.802,0.598,1.613,1.238,2.417,1.902L101.65,31.991 M117.227,60.872c0-0.09,0-0.199,0-0.299c2.354-5.068,6.776-5.168,11.647-0.553
	c0-7.727-1.658-13.859-5.379-17.324c-5.261-4.672-10.766-1.629-15.264-7.982c-0.531-5.541,3.286-7.891,9.843-6.336
	c-3.914-6.625-8.437-11.104-13.356-12.252c-1.107-0.248-2.108-0.309-3.068-0.199c-1.855,0.09-3.463,0.646-5.018,1.105
	c-0.804,0.242-1.615,0.496-2.417,0.656c-0.552,0.092-1.104,0.189-1.711,0.189c-1.47,0.102-3.092-0.154-5.001-1.045
	c-3.159-4.502-1.145-8.301,5.001-10.259c0.155-0.035,0.266-0.084,0.358-0.15c-0.093-0.043-0.203-0.099-0.358-0.135
	c-3.358-1.921-6.623-3.277-9.589-3.927c-2.867-0.602-5.478-0.65-7.779,0.051c-5.324,1.808-6.479,6.228-10.751,8.281
	c-0.908,0.463-2.052,0.807-3.415,0.96c-0.102,0-0.203,0-0.3,0C55.598,9.288,55.497,4.872,60.11,0c-5.919,0-10.946,1.01-14.56,3.115
	c-1.052,0.652-2.006,1.405-2.817,2.261c-4.214,4.829-2.06,9.838-6.528,14.109c-0.399,0.406-0.887,0.773-1.405,1.16
	c-0.077,0-0.17,0-0.246,0h-0.055c-0.902,0.053-1.703,0-2.459-0.148c-3.57-0.859-4.869-4.371-3.57-9.695
	c-0.49,0.297-0.996,0.6-1.501,0.902c-5.825,3.668-9.796,7.832-10.849,12.35c-1.407,6.943,4.067,10.205,0.657,17.381
	c-4.574,3.264-8.491,1.156-10.407-5.314c-3.86,6.727-5.476,12.898-4.012,17.723c2.253,6.582,8.388,6.73,9.288,14.211
	c0,0.113,0,0.197,0,0.309C9.34,73.431,4.87,73.577,0,68.964c0,7.682,1.703,13.863,5.419,17.33c5.263,4.613,10.77,1.58,15.276,7.934
	c0.525,5.533-3.289,7.881-9.852,6.324c3.926,6.682,8.443,11.201,13.363,12.312c1.002,0.205,1.909,0.25,2.763,0.25
	c1.861-0.102,3.462-0.602,5.071-1.104c0.804-0.258,1.608-0.504,2.459-0.713h0.055c0.551-0.09,1.107-0.201,1.651-0.24
	c1.598-0.096,3.29,0.145,5.271,1.076c3.143,4.537,1.071,8.385-5.271,10.328c0,0-0.045,0.043-0.098,0.043
	c0.053,0.059,0.098,0.059,0.098,0.092c3.318,1.867,6.436,3.164,9.345,3.877c3.058,0.703,5.823,0.758,8.285,0
	c5.269-1.756,6.439-6.127,10.55-8.189c0.999-0.504,2.155-0.852,3.616-1.047c0.104,0,0.196,0,0.298,0
	c5.079,2.355,5.183,6.781,0.558,11.648c5.668,0,10.498-0.902,14.059-2.857c1.259-0.711,2.366-1.518,3.32-2.521
	c4.16-4.771,2.109-9.684,6.269-13.908c0.509-0.502,1.063-0.957,1.711-1.412c-0.046,0.051-0.095,0.051-0.095,0.051
	c0-0.051,0.049-0.051,0.095-0.094c0,0,0.051-0.049,0.097-0.049c-0.031,0.027-0.058,0.059-0.097,0.092
	c0.853-0.043,1.671,0,2.417,0.102c3.756,0.709,5.169,4.275,3.861,9.754c0.4-0.209,0.804-0.461,1.156-0.717
	c6.032-3.713,10.1-7.98,11.16-12.598c1.404-6.986-4.081-10.193-0.709-17.385c0,0.057-0.055,0.111-0.055,0.152
	c4.573-3.211,8.483-1.1,10.4,5.326c3.866-6.682,5.479-12.859,4.012-17.68C124.25,68.562,118.075,68.362,117.227,60.872z"/>
</svg>
