<svg width="459.99999999999994" height="400" xmlns="http://www.w3.org/2000/svg">

 <g>
  <title>background</title>
  <rect fill="none" id="canvas_background" height="402" width="462" y="-1" x="-1"/>
 </g>
 <g>
  <title>Layer 1</title>
  <g id="svg_1">
   <line id="svg_2" y2="32.968" y1="32.968" x2="435.868" x1="24.131" stroke-width="10" stroke-miterlimit="2.6131" stroke-linejoin="round" stroke-linecap="round" stroke="#000000" fill="none"/>
   <path id="svg_3" stroke-width="10" stroke-miterlimit="2.6131" stroke-linejoin="round" stroke-linecap="round" stroke="#000000" fill="none" d="m435.868,32.968c10.515,0 19.132,8.617 19.132,19.139"/>
   <line id="svg_4" y2="376.041" y1="52.107" x2="455" x1="455" stroke-width="10" stroke-miterlimit="2.6131" stroke-linejoin="round" stroke-linecap="round" stroke="#000000" fill="none"/>
   <path id="svg_5" stroke-width="10" stroke-miterlimit="2.6131" stroke-linejoin="round" stroke-linecap="round" stroke="#000000" fill="none" d="m455,376.041c0,10.565 -8.617,19.183 -19.132,19.183"/>
   <line id="svg_6" y2="395.224" y1="395.224" x2="24.131" x1="435.868" stroke-width="10" stroke-miterlimit="2.6131" stroke-linejoin="round" stroke-linecap="round" stroke="#000000" fill="none"/>
   <path id="svg_7" stroke-width="10" stroke-miterlimit="2.6131" stroke-linejoin="round" stroke-linecap="round" stroke="#000000" fill="none" d="m24.131,395.224c-10.522,0 -19.131,-8.616 -19.131,-19.183"/>
   <line id="svg_8" y2="52.107" y1="376.041" x2="5" x1="5" stroke-width="10" stroke-miterlimit="2.6131" stroke-linejoin="round" stroke-linecap="round" stroke="#000000" fill="none"/>
   <path id="svg_9" stroke-width="10" stroke-miterlimit="2.6131" stroke-linejoin="round" stroke-linecap="round" stroke="#000000" fill="none" d="m5,52.107c0,-10.522 8.609,-19.139 19.131,-19.139"/>
   <g id="svg_10">
    <g id="svg_11">
     <line stroke="#000000" id="svg_12" y2="66.947" y1="6.700091" x2="94.718" x1="94.718" stroke-width="10" stroke-miterlimit="2.6131" stroke-linejoin="round" stroke-linecap="round" fill="none"/>
     <path id="svg_13" stroke-width="10" stroke-miterlimit="2.6131" stroke-linejoin="round" stroke-linecap="round" stroke="#000000" fill="none" d="m94.718,107.753c10.531,0 19.13,-8.633 19.13,-19.139c0,-10.532 -8.599,-19.148 -19.13,-19.148c-10.532,0 -19.123,8.617 -19.123,19.148c0,10.507 8.592,19.139 19.123,19.139"/>
    </g>
    <g stroke="null" id="svg_14">
     <line stroke="#000000" id="svg_15" y2="75.159445" y1="6.469254" x2="365.291" x1="365.291" stroke-width="10" stroke-miterlimit="2.6131" stroke-linejoin="round" stroke-linecap="round" fill="none"/>
     <path stroke="#000000" id="svg_16" stroke-width="10" stroke-miterlimit="2.6131" stroke-linejoin="round" stroke-linecap="round" fill="none" d="m365.291,107.753c10.514,0 19.097,-7.349235 19.097,-16.292947c0,-8.965845 -8.583,-16.300608 -19.097,-16.300608c-10.549,0 -19.132,7.335614 -19.132,16.300608c0,8.944563 8.583,16.292947 19.132,16.292947"/>
    </g>
   </g>
   <line id="svg_17" y2="154.75" y1="154.75" x2="404.779" x1="55.23" stroke-width="10" stroke-miterlimit="2.6131" stroke-linejoin="round" stroke-linecap="round" stroke="#000000" fill="none"/>
   <line id="svg_18" y2="203.477" y1="203.477" x2="82.826" x1="65.853" stroke-width="10" stroke-miterlimit="2.6131" stroke-linejoin="round" stroke-linecap="round" stroke="#000000" fill="none"/>
   <path id="svg_19" stroke-width="10" stroke-miterlimit="2.6131" stroke-linejoin="round" stroke-linecap="round" stroke="#000000" fill="none" d="m82.826,203.477c5.862,0 10.649,4.771 10.649,10.614"/>
   <line id="svg_20" y2="231.089" y1="214.091" x2="93.475" x1="93.475" stroke-width="10" stroke-miterlimit="2.6131" stroke-linejoin="round" stroke-linecap="round" stroke="#000000" fill="none"/>
   <path id="svg_21" stroke-width="10" stroke-miterlimit="2.6131" stroke-linejoin="round" stroke-linecap="round" stroke="#000000" fill="none" d="m93.475,231.089c0,5.828 -4.787,10.632 -10.649,10.632"/>
   <line id="svg_22" y2="241.721" y1="241.721" x2="65.853" x1="82.826" stroke-width="10" stroke-miterlimit="2.6131" stroke-linejoin="round" stroke-linecap="round" stroke="#000000" fill="none"/>
   <path id="svg_23" stroke-width="10" stroke-miterlimit="2.6131" stroke-linejoin="round" stroke-linecap="round" stroke="#000000" fill="none" d="m65.853,241.721c-5.844,0 -10.623,-4.804 -10.623,-10.632"/>
   <line id="svg_24" y2="214.091" y1="231.089" x2="55.23" x1="55.23" stroke-width="10" stroke-miterlimit="2.6131" stroke-linejoin="round" stroke-linecap="round" stroke="#000000" fill="none"/>
   <path id="svg_25" stroke-width="10" stroke-miterlimit="2.6131" stroke-linejoin="round" stroke-linecap="round" stroke="#000000" fill="none" d="m55.23,214.091c0,-5.845 4.779,-10.614 10.623,-10.614"/>
   <line id="svg_26" y2="203.477" y1="203.477" x2="284.248" x1="267.268" stroke-width="10" stroke-miterlimit="2.6131" stroke-linejoin="round" stroke-linecap="round" stroke="#000000" fill="none"/>
   <path id="svg_27" stroke-width="10" stroke-miterlimit="2.6131" stroke-linejoin="round" stroke-linecap="round" stroke="#000000" fill="none" d="m284.248,203.477c5.846,0 10.633,4.771 10.633,10.614"/>
   <line id="svg_28" y2="231.089" y1="214.091" x2="294.881" x1="294.881" stroke-width="10" stroke-miterlimit="2.6131" stroke-linejoin="round" stroke-linecap="round" stroke="#000000" fill="none"/>
   <path id="svg_29" stroke-width="10" stroke-miterlimit="2.6131" stroke-linejoin="round" stroke-linecap="round" stroke="#000000" fill="none" d="m294.881,231.089c0,5.828 -4.787,10.632 -10.633,10.632"/>
   <line id="svg_30" y2="241.721" y1="241.721" x2="267.268" x1="284.248" stroke-width="10" stroke-miterlimit="2.6131" stroke-linejoin="round" stroke-linecap="round" stroke="#000000" fill="none"/>
   <path id="svg_31" stroke-width="10" stroke-miterlimit="2.6131" stroke-linejoin="round" stroke-linecap="round" stroke="#000000" fill="none" d="m267.268,241.721c-5.846,0 -10.633,-4.804 -10.633,-10.632"/>
   <line id="svg_32" y2="214.091" y1="231.089" x2="256.635" x1="256.635" stroke-width="10" stroke-miterlimit="2.6131" stroke-linejoin="round" stroke-linecap="round" stroke="#000000" fill="none"/>
   <path id="svg_33" stroke-width="10" stroke-miterlimit="2.6131" stroke-linejoin="round" stroke-linecap="round" stroke="#000000" fill="none" d="m256.635,214.091c0,-5.845 4.787,-10.614 10.633,-10.614"/>
   <line id="svg_34" y2="203.477" y1="203.477" x2="384.977" x1="367.979" stroke-width="10" stroke-miterlimit="2.6131" stroke-linejoin="round" stroke-linecap="round" stroke="#000000" fill="none"/>
   <path id="svg_35" stroke-width="10" stroke-miterlimit="2.6131" stroke-linejoin="round" stroke-linecap="round" stroke="#000000" fill="none" d="m384.977,203.477c5.845,0 10.615,4.771 10.615,10.614"/>
   <line id="svg_36" y2="231.089" y1="214.091" x2="395.592" x1="395.592" stroke-width="10" stroke-miterlimit="2.6131" stroke-linejoin="round" stroke-linecap="round" stroke="#000000" fill="none"/>
   <path id="svg_37" stroke-width="10" stroke-miterlimit="2.6131" stroke-linejoin="round" stroke-linecap="round" stroke="#000000" fill="none" d="m395.592,231.089c0,5.828 -4.771,10.632 -10.615,10.632"/>
   <line id="svg_38" y2="241.721" y1="241.721" x2="367.979" x1="384.977" stroke-width="10" stroke-miterlimit="2.6131" stroke-linejoin="round" stroke-linecap="round" stroke="#000000" fill="none"/>
   <path id="svg_39" stroke-width="10" stroke-miterlimit="2.6131" stroke-linejoin="round" stroke-linecap="round" stroke="#000000" fill="none" d="m367.979,241.721c-5.846,0 -10.614,-4.804 -10.614,-10.632"/>
   <line id="svg_40" y2="214.091" y1="231.089" x2="357.363" x1="357.363" stroke-width="10" stroke-miterlimit="2.6131" stroke-linejoin="round" stroke-linecap="round" stroke="#000000" fill="none"/>
   <path id="svg_41" stroke-width="10" stroke-miterlimit="2.6131" stroke-linejoin="round" stroke-linecap="round" stroke="#000000" fill="none" d="m357.363,214.091c0,-5.845 4.77,-10.614 10.615,-10.614"/>
   <line id="svg_42" y2="301.802" y1="301.802" x2="82.826" x1="65.853" stroke-width="10" stroke-miterlimit="2.6131" stroke-linejoin="round" stroke-linecap="round" stroke="#000000" fill="none"/>
   <path id="svg_43" stroke-width="10" stroke-miterlimit="2.6131" stroke-linejoin="round" stroke-linecap="round" stroke="#000000" fill="none" d="m82.826,301.802c5.862,0 10.649,4.786 10.649,10.615"/>
   <line id="svg_44" y2="329.432" y1="312.417" x2="93.475" x1="93.475" stroke-width="10" stroke-miterlimit="2.6131" stroke-linejoin="round" stroke-linecap="round" stroke="#000000" fill="none"/>
   <path id="svg_45" stroke-width="10" stroke-miterlimit="2.6131" stroke-linejoin="round" stroke-linecap="round" stroke="#000000" fill="none" d="m93.475,329.432c0,5.828 -4.787,10.615 -10.649,10.615"/>
   <line id="svg_46" y2="340.047" y1="340.047" x2="65.853" x1="82.826" stroke-width="10" stroke-miterlimit="2.6131" stroke-linejoin="round" stroke-linecap="round" stroke="#000000" fill="none"/>
   <path id="svg_47" stroke-width="10" stroke-miterlimit="2.6131" stroke-linejoin="round" stroke-linecap="round" stroke="#000000" fill="none" d="m65.853,340.047c-5.844,0 -10.623,-4.787 -10.623,-10.615"/>
   <line id="svg_48" y2="312.417" y1="329.432" x2="55.23" x1="55.23" stroke-width="10" stroke-miterlimit="2.6131" stroke-linejoin="round" stroke-linecap="round" stroke="#000000" fill="none"/>
   <path id="svg_49" stroke-width="10" stroke-miterlimit="2.6131" stroke-linejoin="round" stroke-linecap="round" stroke="#000000" fill="none" d="m55.23,312.417c0,-5.829 4.779,-10.615 10.623,-10.615"/>
   <line id="svg_50" y2="301.802" y1="301.802" x2="183.545" x1="166.556" stroke-width="10" stroke-miterlimit="2.6131" stroke-linejoin="round" stroke-linecap="round" stroke="#000000" fill="none"/>
   <path id="svg_51" stroke-width="10" stroke-miterlimit="2.6131" stroke-linejoin="round" stroke-linecap="round" stroke="#000000" fill="none" d="m183.545,301.802c5.854,0 10.632,4.786 10.632,10.615"/>
   <line id="svg_52" y2="329.432" y1="312.417" x2="194.178" x1="194.178" stroke-width="10" stroke-miterlimit="2.6131" stroke-linejoin="round" stroke-linecap="round" stroke="#000000" fill="none"/>
   <path id="svg_53" stroke-width="10" stroke-miterlimit="2.6131" stroke-linejoin="round" stroke-linecap="round" stroke="#000000" fill="none" d="m194.178,329.432c0,5.828 -4.778,10.615 -10.632,10.615"/>
   <line id="svg_54" y2="340.047" y1="340.047" x2="166.556" x1="183.545" stroke-width="10" stroke-miterlimit="2.6131" stroke-linejoin="round" stroke-linecap="round" stroke="#000000" fill="none"/>
   <path id="svg_55" stroke-width="10" stroke-miterlimit="2.6131" stroke-linejoin="round" stroke-linecap="round" stroke="#000000" fill="none" d="m166.556,340.047c-5.836,0 -10.632,-4.787 -10.632,-10.615"/>
   <line id="svg_56" y2="312.417" y1="329.432" x2="155.924" x1="155.924" stroke-width="10" stroke-miterlimit="2.6131" stroke-linejoin="round" stroke-linecap="round" stroke="#000000" fill="none"/>
   <path id="svg_57" stroke-width="10" stroke-miterlimit="2.6131" stroke-linejoin="round" stroke-linecap="round" stroke="#000000" fill="none" d="m155.924,312.417c0,-5.829 4.795,-10.615 10.632,-10.615"/>
   <line id="svg_58" y2="301.802" y1="301.802" x2="284.248" x1="267.268" stroke-width="10" stroke-miterlimit="2.6131" stroke-linejoin="round" stroke-linecap="round" stroke="#000000" fill="none"/>
   <path id="svg_59" stroke-width="10" stroke-miterlimit="2.6131" stroke-linejoin="round" stroke-linecap="round" stroke="#000000" fill="none" d="m284.248,301.802c5.846,0 10.633,4.786 10.633,10.615"/>
   <line id="svg_60" y2="329.432" y1="312.417" x2="294.881" x1="294.881" stroke-width="10" stroke-miterlimit="2.6131" stroke-linejoin="round" stroke-linecap="round" stroke="#000000" fill="none"/>
   <path id="svg_61" stroke-width="10" stroke-miterlimit="2.6131" stroke-linejoin="round" stroke-linecap="round" stroke="#000000" fill="none" d="m294.881,329.432c0,5.828 -4.787,10.615 -10.633,10.615"/>
   <line id="svg_62" y2="340.047" y1="340.047" x2="267.268" x1="284.248" stroke-width="10" stroke-miterlimit="2.6131" stroke-linejoin="round" stroke-linecap="round" stroke="#000000" fill="none"/>
   <path id="svg_63" stroke-width="10" stroke-miterlimit="2.6131" stroke-linejoin="round" stroke-linecap="round" stroke="#000000" fill="none" d="m267.268,340.047c-5.846,0 -10.633,-4.787 -10.633,-10.615"/>
   <line id="svg_64" y2="312.417" y1="329.432" x2="256.635" x1="256.635" stroke-width="10" stroke-miterlimit="2.6131" stroke-linejoin="round" stroke-linecap="round" stroke="#000000" fill="none"/>
   <path id="svg_65" stroke-width="10" stroke-miterlimit="2.6131" stroke-linejoin="round" stroke-linecap="round" stroke="#000000" fill="none" d="m256.635,312.417c0,-5.829 4.787,-10.615 10.633,-10.615"/>
   <g id="svg_66">
    <line id="svg_67" y2="232.803" y1="219.802" x2="174.114" x1="159.955" stroke-width="10" stroke-miterlimit="2.6131" stroke-linejoin="round" stroke-linecap="round" stroke="#000000" fill="none"/>
    <line id="svg_68" y2="232.803" y1="204.45" x2="174.114" x1="200.082" stroke-width="10" stroke-miterlimit="2.6131" stroke-linejoin="round" stroke-linecap="round" stroke="#000000" fill="none"/>
   </g>
   <g id="svg_69">
    <line id="svg_70" y2="331.128" y1="318.145" x2="378.392" x1="364.232" stroke-width="10" stroke-miterlimit="2.6131" stroke-linejoin="round" stroke-linecap="round" stroke="#000000" fill="none"/>
    <line id="svg_71" y2="331.128" y1="302.776" x2="378.392" x1="404.359" stroke-width="10" stroke-miterlimit="2.6131" stroke-linejoin="round" stroke-linecap="round" stroke="#000000" fill="none"/>
   </g>
  </g>
 </g>
</svg>